<svg width="36" height="36" viewBox="0 0 36 36" fill="none" xmlns="http://www.w3.org/2000/svg">
<path d="M9.97663 19.0125H6.44905C6.4392 19.0125 6.42936 19.0167 6.42092 19.0244C6.41319 19.0321 6.40686 19.0427 6.40686 19.0546V22.5822C6.40686 22.5921 6.41249 22.6019 6.42092 22.6103C6.42866 22.6181 6.4392 22.6244 6.44905 22.6244H9.97663C9.98858 22.6244 9.99842 22.6188 10.0069 22.6103C10.0146 22.6026 10.0188 22.5921 10.0188 22.5822V19.0546C10.0188 19.0427 10.0146 19.0328 10.0069 19.0244C9.99842 19.0167 9.98858 19.0125 9.97663 19.0125Z" fill="#CF0631"/>
<path d="M9.97663 11.4708H6.44905C6.4392 11.4708 6.42936 11.4772 6.42092 11.4828C6.41319 11.4905 6.40686 11.5025 6.40686 11.513V15.0406C6.40686 15.0525 6.41249 15.0624 6.42092 15.0708C6.42866 15.0786 6.4392 15.0828 6.44905 15.0828H9.97663C9.98858 15.0828 9.99842 15.0786 10.0069 15.0708C10.0146 15.0631 10.0188 15.0532 10.0188 15.0406V11.513C10.0188 11.5032 10.0146 11.4912 10.0069 11.4828C9.99842 11.4765 9.98858 11.4708 9.97663 11.4708Z" fill="#CF0631"/>
<path d="M9.97663 3.92834H6.44905C6.4392 3.92834 6.42936 3.93397 6.42092 3.94241C6.41319 3.95014 6.40686 3.96069 6.40686 3.97053V7.49811C6.40686 7.51006 6.41249 7.51991 6.42092 7.52835C6.42866 7.53608 6.4392 7.5403 6.44905 7.5403H9.97663C9.98858 7.5403 9.99842 7.53608 10.0069 7.52835C10.0146 7.52061 10.0188 7.51006 10.0188 7.49811V3.97053C10.0188 3.96069 10.0146 3.95084 10.0069 3.94241C9.99842 3.93467 9.98858 3.92834 9.97663 3.92834Z" fill="#CF0631"/>
<path d="M22.5914 25.0699C23.8732 23.7881 25.643 22.995 27.5998 22.995C28.0223 22.995 28.4372 23.033 28.8394 23.1047V2.58539C28.8394 1.87383 28.5504 1.22836 28.0821 0.759375C27.6138 0.291094 26.9662 0 26.2547 0H5.06391C4.35234 0 3.70477 0.291094 3.23578 0.759375C2.7675 1.22766 2.47852 1.87383 2.47852 2.58539V31.5091C2.47852 32.2207 2.7675 32.8662 3.23578 33.3352C3.70406 33.8034 4.35164 34.0945 5.0632 34.0945H21.7631C20.9756 32.9527 20.5158 31.5689 20.5158 30.0783C20.5165 28.1229 21.3096 26.351 22.5914 25.0699ZM14.1799 3.42422H24.6797C25.0003 3.42422 25.2598 3.68367 25.2598 4.0043C25.2598 4.32492 25.0003 4.58648 24.6797 4.58648H14.1799C13.8593 4.58648 13.5977 4.32562 13.5977 4.0043C13.5977 3.68297 13.8593 3.42422 14.1799 3.42422ZM14.1799 6.8843H24.6797C25.0003 6.8843 25.2598 7.14516 25.2598 7.46648C25.2598 7.7857 25.0003 8.04656 24.6797 8.04656H14.1799C13.8593 8.04656 13.5977 7.7857 13.5977 7.46648C13.5984 7.14586 13.8593 6.8843 14.1799 6.8843ZM14.1799 10.9666H24.6797C25.0003 10.9666 25.2598 11.2261 25.2598 11.5467C25.2598 11.8673 25.0003 12.1268 24.6797 12.1268H14.1799C13.8593 12.1268 13.5977 11.8673 13.5977 11.5467C13.5984 11.2254 13.8593 10.9666 14.1799 10.9666ZM14.1799 14.4267H24.6797C25.0003 14.4267 25.2598 14.6862 25.2598 15.0068C25.2598 15.3274 25.0003 15.589 24.6797 15.589H14.1799C13.8593 15.589 13.5977 15.3281 13.5977 15.0068C13.5984 14.6855 13.8593 14.4267 14.1799 14.4267ZM14.1799 18.5063H24.6797C25.0003 18.5063 25.2598 18.7671 25.2598 19.0884C25.2598 19.4091 25.0003 19.6685 24.6797 19.6685H14.1799C13.8593 19.6685 13.5977 19.4091 13.5977 19.0884C13.5984 18.7671 13.8593 18.5063 14.1799 18.5063ZM14.1799 21.9684H22.5288C22.8495 21.9684 23.1089 22.2272 23.1089 22.5485C23.1089 22.8698 22.8495 23.1286 22.5288 23.1286H14.1799C13.8593 23.1286 13.5977 22.8691 13.5977 22.5485C13.5977 22.2279 13.8593 21.9684 14.1799 21.9684ZM11.1804 30.1219C11.1804 30.4545 11.0447 30.7554 10.8274 30.9727C10.6102 31.1899 10.3092 31.3256 9.97664 31.3256H6.44906C6.11789 31.3256 5.81695 31.1899 5.59969 30.9727C5.38031 30.7554 5.24672 30.4545 5.24672 30.1219V26.5943C5.24672 26.2631 5.38031 25.9622 5.59969 25.7449C5.81695 25.5277 6.11789 25.392 6.44906 25.392H9.97664C10.3092 25.392 10.6102 25.5277 10.8274 25.7449C11.0447 25.9622 11.1804 26.2631 11.1804 26.5943V30.1219ZM11.1804 22.5823C11.1804 22.9134 11.0447 23.2144 10.8274 23.4316C10.6102 23.651 10.3092 23.7846 9.97664 23.7846H6.44906C6.11789 23.7846 5.81695 23.651 5.59969 23.4316C5.38031 23.2144 5.24672 22.9134 5.24672 22.5823V19.0547C5.24672 18.7221 5.38031 18.4212 5.59969 18.2039C5.81695 17.9866 6.11789 17.8509 6.44906 17.8509H9.97664C10.3092 17.8509 10.6102 17.9866 10.8274 18.2039C11.0447 18.4212 11.1804 18.7221 11.1804 19.0547V22.5823ZM11.1804 15.0405C11.1804 15.3717 11.0447 15.6727 10.8274 15.8913C10.6102 16.1086 10.3092 16.2443 9.97664 16.2443H6.44906C6.11789 16.2443 5.81695 16.1086 5.59969 15.8913C5.38031 15.672 5.24672 15.371 5.24672 15.0405V11.513C5.24672 11.1818 5.38031 10.8809 5.59969 10.6636C5.81695 10.4442 6.11789 10.3085 6.44906 10.3085H9.97664C10.3092 10.3085 10.6102 10.4442 10.8274 10.6636C11.0447 10.8809 11.1804 11.1818 11.1804 11.513V15.0405ZM11.1804 7.49813C11.1804 7.8307 11.0447 8.13164 10.8274 8.34891C10.6102 8.56617 10.3092 8.70187 9.97664 8.70187H6.44906C6.11789 8.70187 5.81695 8.56617 5.59969 8.34891C5.38031 8.13164 5.24672 7.8307 5.24672 7.49813V3.97055C5.24672 3.63937 5.38031 3.33844 5.59969 3.12117C5.81695 2.90391 6.11789 2.7682 6.44906 2.7682H9.97664C10.3092 2.7682 10.6102 2.90391 10.8274 3.12117C11.0447 3.33844 11.1804 3.63937 11.1804 3.97055V7.49813ZM18.521 30.6703H14.1799C13.8593 30.6703 13.5977 30.4095 13.5977 30.0902C13.5977 29.7696 13.8586 29.508 14.1799 29.508H18.521C18.8416 29.508 19.1032 29.7689 19.1032 30.0902C19.1032 30.4095 18.8423 30.6703 18.521 30.6703ZM19.2009 27.2102H14.1806C13.86 27.2102 13.5984 26.9494 13.5984 26.628C13.5984 26.3074 13.8593 26.048 14.1806 26.048H19.2009C19.5216 26.048 19.781 26.3074 19.781 26.628C19.781 26.9494 19.5216 27.2102 19.2009 27.2102Z" fill="#CF0631"/>
<path d="M9.97663 26.5529H6.44905C6.4392 26.5529 6.42936 26.5585 6.42092 26.5669C6.41319 26.5747 6.40686 26.5852 6.40686 26.595V30.1226C6.40686 30.1346 6.41249 30.1444 6.42092 30.1522C6.42866 30.1599 6.4392 30.1641 6.44905 30.1641H9.97663C9.98858 30.1641 9.99842 30.1599 10.0069 30.1522C10.0146 30.1444 10.0188 30.1346 10.0188 30.1226V26.595C10.0188 26.5852 10.0146 26.5754 10.0069 26.5669C9.99842 26.5585 9.98858 26.5529 9.97663 26.5529Z" fill="#CF0631"/>
<path d="M31.7876 25.8905C30.7153 24.8204 29.2345 24.1566 27.5998 24.1566C25.9636 24.1566 24.4842 24.8204 23.4119 25.8905C22.3397 26.9628 21.678 28.4436 21.678 30.0783C21.678 31.7145 22.3397 33.1939 23.4119 34.2661C24.4842 35.3384 25.9629 36.0001 27.5998 36.0001C29.2338 36.0001 30.7153 35.3384 31.7876 34.2661C32.8577 33.1939 33.5215 31.7152 33.5215 30.0783C33.5215 28.4443 32.8577 26.9628 31.7876 25.8905ZM31.5183 28.5097L27.5618 32.4683C27.3347 32.6954 26.9655 32.6954 26.7405 32.4683L23.6791 29.409C23.4541 29.1819 23.4541 28.8127 23.6791 28.5877C23.9062 28.3606 24.2754 28.3606 24.5004 28.5877L27.1512 31.2364L30.697 27.6884C30.9241 27.4634 31.2912 27.4634 31.5183 27.6884C31.7454 27.9155 31.7454 28.2847 31.5183 28.5097Z" fill="#CF0631"/>
</svg>
