<svg width="35" height="33" viewBox="0 0 35 33" fill="none" xmlns="http://www.w3.org/2000/svg">
<path d="M25.0242 7.80442L25.0225 7.8044L15.874 7.95064C15.1887 7.96161 14.6419 8.52603 14.6528 9.21152C14.6637 9.89692 15.2282 10.4437 15.9136 10.4327L22.0558 10.3345L9.57034 23.6211C9.09223 24.1123 9.1029 24.8981 9.59415 25.3762C10.0854 25.8543 10.8712 25.8436 11.3493 25.3524L23.8347 12.0659L23.9032 18.2084C23.9109 18.8938 24.4728 19.4433 25.1582 19.4356C25.8438 19.428 26.3931 18.8659 26.3855 18.1806L26.2835 9.03151L26.2834 9.02989C26.2748 8.34314 25.7087 7.79439 25.0242 7.80442Z" fill="#CF0631"/>
</svg>
