<svg width="49" height="33" viewBox="0 0 49 33" fill="none" xmlns="http://www.w3.org/2000/svg">
<path d="M48.9931 29.8458C48.9894 29.7394 48.9856 29.6324 48.9819 29.525C48.9781 29.4176 48.9741 29.3099 48.9701 29.2017L48.967 29.1207L48.9655 29.0801L48.9651 29.0699L48.964 28.9792L48.9637 28.9749L48.9624 28.9581L48.9521 28.8237C48.9381 28.6442 48.9241 28.464 48.9101 28.2838L48.8995 28.1474L48.8834 27.9704C48.8722 27.8528 48.8611 27.7352 48.85 27.6178C48.8385 27.5007 48.827 27.3837 48.8155 27.2672C48.8096 27.2089 48.8037 27.1508 48.7978 27.0928C48.7907 27.0391 48.7836 26.9855 48.7765 26.9319C48.7177 26.5068 48.6653 26.089 48.5904 25.6874C48.555 25.4864 48.5224 25.2888 48.4856 25.0962C48.4456 24.9041 48.4064 24.7162 48.3682 24.5333C48.2959 24.1672 48.2051 23.8253 48.1285 23.5092C48.1089 23.4303 48.0897 23.3529 48.071 23.2775C48.0502 23.2023 48.0297 23.1291 48.0099 23.0576C47.9695 22.9149 47.9313 22.7795 47.8953 22.6524C47.8587 22.5255 47.8264 22.4063 47.7927 22.2971C47.7579 22.1882 47.726 22.0881 47.6972 21.9978C47.6545 21.865 47.6184 21.7532 47.59 21.6648C47.5479 21.5344 47.4101 21.461 47.2783 21.4986L38.9941 23.8594C38.8678 23.8953 38.7896 24.0211 38.8136 24.1501C38.8226 24.1983 38.8329 24.2535 38.8443 24.3153C38.8561 24.3774 38.8692 24.4463 38.8835 24.5213C38.8969 24.5964 38.9075 24.6787 38.9211 24.7657C38.9344 24.8529 38.9485 24.9456 38.9634 25.0434C38.9707 25.0922 38.9793 25.142 38.9861 25.1935C38.9919 25.2451 38.9979 25.2979 39.0041 25.3518C39.0272 25.5676 39.0616 25.799 39.077 26.0471C39.0872 26.1705 39.0977 26.2974 39.1084 26.4268C39.1165 26.5567 39.1205 26.6897 39.1274 26.8244C39.1453 27.0933 39.1419 27.3733 39.1471 27.6556L39.1483 27.7608L39.1446 27.8539C39.1424 27.9159 39.1403 27.9781 39.1382 28.0404C39.1365 28.1025 39.1348 28.1647 39.1331 28.2271L39.1312 28.3203L39.1255 28.4545C39.1178 28.6351 39.1101 28.8157 39.1024 28.9956L39.0966 29.1303L39.0959 29.1472L39.0957 29.1513C39.0958 29.1716 39.0942 28.9908 39.0947 29.0689L39.094 29.0755L39.0915 29.1021L39.0866 29.1553C39.0802 29.2261 39.0738 29.2965 39.0675 29.3669C39.0614 29.437 39.0552 29.5069 39.0492 29.5764C39.0409 29.6456 39.0327 29.7145 39.0245 29.7829C39.0069 29.9196 38.9961 30.055 38.9743 30.1869C38.9552 30.3189 38.9364 30.4485 38.9181 30.5755C38.8961 30.7016 38.8746 30.8251 38.8538 30.9451C38.8349 31.0653 38.8097 31.1811 38.7872 31.2931C38.7637 31.4049 38.7449 31.5135 38.7205 31.6165C38.6968 31.7196 38.674 31.8182 38.6522 31.9121C38.6415 31.9584 38.6311 32.0035 38.621 32.0475C38.6106 32.0851 38.6005 32.1217 38.5907 32.1571C38.5849 32.1788 38.5794 32.1991 38.5738 32.2201H48.7059C48.8417 32.2201 48.9548 32.1135 48.96 31.9778C48.96 31.977 48.96 31.9762 48.9601 31.9754C48.9685 31.7867 48.9771 31.593 48.986 31.3949C48.9898 31.1971 48.9936 30.9949 48.9976 30.7893C49.0033 30.5839 48.9971 30.3751 48.9965 30.1641C48.9953 30.0586 48.9943 29.9525 48.9931 29.8458Z" fill="#CF0631"/>
<path d="M46.3586 19.2115C46.4945 19.1568 46.5565 18.9994 46.4938 18.867C46.466 18.8081 46.4334 18.7393 46.3965 18.6615C46.3617 18.5883 46.3232 18.5074 46.2815 18.4192C46.2274 18.309 46.1689 18.1898 46.1063 18.0625C46.0433 17.9357 45.9763 17.8007 45.9055 17.6584C45.8697 17.5845 45.8344 17.5234 45.7975 17.454C45.7608 17.3861 45.7232 17.3167 45.6848 17.2458C45.6076 17.1043 45.5286 16.9563 45.4439 16.8047C45.3563 16.6549 45.2659 16.4998 45.1729 16.3404C45.1262 16.2609 45.079 16.1803 45.0311 16.0988C44.981 16.0186 44.9303 15.9373 44.8791 15.8552C44.7761 15.6917 44.6708 15.5245 44.5638 15.3546C44.3381 15.0219 44.1133 14.674 43.8625 14.3354C43.8009 14.2501 43.739 14.1645 43.6769 14.0787L43.5836 13.9501L43.4864 13.8235C43.3564 13.6552 43.2259 13.4864 43.0954 13.3174C42.9626 13.1505 42.8252 12.987 42.6905 12.823C42.6225 12.7415 42.5565 12.6588 42.487 12.5791C42.4173 12.4998 42.3479 12.4206 42.2786 12.3417C42.2094 12.2632 42.1404 12.1848 42.0718 12.1068C42.0035 12.0286 41.9347 11.9517 41.8637 11.8773C41.7232 11.7277 41.5845 11.5799 41.448 11.4345C41.3113 11.2896 41.1698 11.1533 41.0351 11.0172C40.8995 10.8817 40.7676 10.7487 40.633 10.6252C40.4999 10.5006 40.3703 10.3794 40.2451 10.2621C40.1204 10.1445 39.993 10.0378 39.8744 9.93201C39.7548 9.82741 39.6401 9.72719 39.5311 9.63188C39.4193 9.53971 39.3132 9.45233 39.2135 9.37022C39.1138 9.28841 39.0205 9.21187 38.9342 9.1411C38.8477 9.0706 38.765 9.00948 38.6922 8.95248C38.586 8.87104 38.4964 8.80223 38.4251 8.74756C38.3166 8.66421 38.1618 8.682 38.0745 8.78758L33.6282 14.1696C33.5444 14.2711 33.5515 14.4195 33.6451 14.5121C33.6822 14.5488 33.7252 14.5913 33.7734 14.6391C33.8197 14.6856 33.8727 14.7348 33.9271 14.7923C33.9815 14.8497 34.0402 14.9118 34.1029 14.9782C34.1658 15.0442 34.2326 15.1144 34.3031 15.1885C34.371 15.265 34.4424 15.3455 34.5169 15.4294C34.5906 15.5141 34.671 15.5982 34.7476 15.6919C34.8248 15.7848 34.9046 15.8807 34.9867 15.9794C35.0703 16.0762 35.1501 16.1814 35.2327 16.2877C35.3145 16.3946 35.4018 16.5001 35.4839 16.6132C35.5661 16.726 35.6496 16.8406 35.7342 16.9566C35.7773 17.0137 35.8182 17.0733 35.8585 17.1338C35.8992 17.1938 35.9402 17.254 35.9813 17.3146C36.0224 17.3748 36.0639 17.4354 36.1053 17.4962C36.1466 17.5569 36.1845 17.6205 36.2245 17.6826C36.303 17.808 36.3844 17.9316 36.4616 18.0579C36.5368 18.1855 36.612 18.3131 36.6869 18.4401L36.7431 18.535L36.7958 18.6318C36.831 18.696 36.866 18.7602 36.9009 18.824C37.0451 19.0762 37.1668 19.3362 37.2941 19.5805C37.3524 19.7057 37.4097 19.8288 37.4658 19.9493C37.4939 20.0094 37.5216 20.0688 37.5491 20.1274C37.5745 20.1872 37.5996 20.2461 37.6243 20.3044C37.6741 20.4202 37.7225 20.5331 37.7694 20.642C37.8126 20.7526 37.8544 20.8593 37.8945 20.9618C37.9147 21.013 37.9343 21.063 37.9534 21.112C37.9716 21.1597 37.9941 21.2114 38.0062 21.2512C38.0348 21.3347 38.0619 21.414 38.0873 21.4885C38.1133 21.5624 38.1377 21.6316 38.1602 21.6956C38.1898 21.7838 38.2169 21.8647 38.2414 21.9379C38.2687 22.0196 38.2927 22.0918 38.3134 22.1537C38.3597 22.2926 38.5135 22.3634 38.6494 22.3088L46.3586 19.2115Z" fill="#CF0631"/>
<path d="M23.7164 9.59809C23.7837 9.60727 23.8582 9.61743 23.9394 9.62852C24.0201 9.64255 24.1073 9.65777 24.2005 9.67401C24.2936 9.69 24.3926 9.70697 24.497 9.72492C24.5876 9.73998 24.6816 9.76185 24.7792 9.78228L27.5853 4.04248C27.4462 4.02077 27.3082 3.99921 27.173 3.97811C27.0804 3.96434 26.9892 3.94851 26.8984 3.93716C26.8075 3.92617 26.7178 3.91529 26.6292 3.90456C26.4524 3.88357 26.2803 3.86309 26.114 3.84334C25.9472 3.82905 25.786 3.81523 25.6313 3.80197C25.4766 3.79011 25.329 3.77448 25.1877 3.76777C25.0467 3.76086 24.9129 3.75426 24.7872 3.74807C24.6616 3.74214 24.5441 3.73662 24.4356 3.73146C24.3269 3.72971 24.227 3.72811 24.1368 3.72667C24.0099 3.72512 23.9022 3.72383 23.8159 3.7228C23.679 3.72115 23.5656 3.82817 23.5591 3.96496L23.3032 9.30734C23.2969 9.43897 23.3919 9.55358 23.5224 9.57147C23.578 9.57911 23.6429 9.58803 23.7164 9.59809Z" fill="#CF0631"/>
<path d="M31.2582 12.5399C31.3336 12.5947 31.4051 12.6467 31.4722 12.6956C31.5395 12.7438 31.6025 12.7889 31.6607 12.8306C31.6859 12.8479 31.7275 12.8795 31.7615 12.9048C31.7966 12.9309 31.8299 12.9558 31.8615 12.9795C31.9306 13.031 31.9916 13.0765 32.0438 13.1154C32.1612 13.203 32.3278 13.1734 32.4082 13.0509L36.0718 7.47032C36.1523 7.34788 36.1132 7.18319 35.9861 7.1103C35.9296 7.07791 35.8636 7.04005 35.789 6.99719C35.7547 6.97749 35.7186 6.95681 35.6806 6.93504C35.6393 6.91167 35.5961 6.88723 35.5511 6.86175C35.4468 6.80429 35.3341 6.74224 35.2137 6.67586C35.0932 6.6102 34.9649 6.54036 34.8297 6.46665C34.701 6.40213 34.5656 6.3343 34.4243 6.26348C34.2825 6.19426 34.1378 6.11726 33.9826 6.04737C33.8281 5.9766 33.6684 5.90341 33.5043 5.82816C33.3412 5.7512 33.1692 5.68131 32.9945 5.60797C32.8192 5.53617 32.6427 5.45767 32.4584 5.3884C32.4117 5.37071 32.3643 5.35281 32.3173 5.33496L30.7368 12.1948C30.8242 12.2497 30.9065 12.3079 30.9876 12.3604C31.082 12.423 31.1722 12.4829 31.2582 12.5399Z" fill="#CF0631"/>
<path d="M18.7971 9.57014C18.8678 9.56081 18.9373 9.54925 19.0067 9.54193C19.0761 9.53492 19.1446 9.52795 19.2122 9.52104C19.347 9.50706 19.4782 9.49345 19.6051 9.48024C19.7324 9.47173 19.8555 9.46348 19.9735 9.45554C20.0324 9.45151 20.0901 9.44759 20.1465 9.44372C20.2027 9.43996 20.259 9.43516 20.3073 9.43511C20.4068 9.43248 20.5012 9.43006 20.5899 9.42774C20.6783 9.42495 20.7609 9.42232 20.8375 9.4199C20.9318 9.41928 21.0185 9.41871 21.0967 9.41819C21.1828 9.41773 21.2589 9.41732 21.324 9.41695C21.4705 9.41618 21.5856 9.29213 21.576 9.14596L21.2462 4.11341C21.2366 3.96724 21.1063 3.85929 20.961 3.87765C20.8964 3.8858 20.8209 3.89534 20.7354 3.90612C20.6562 3.91618 20.5685 3.92737 20.473 3.93954C20.3601 3.9563 20.2381 3.97436 20.1076 3.9937C19.9776 4.01351 19.8392 4.0346 19.6932 4.05683C19.6186 4.06735 19.5498 4.08133 19.4776 4.09495C19.4057 4.10867 19.3321 4.12275 19.2569 4.13709C19.1069 4.16608 18.9507 4.1963 18.7888 4.22756C18.6282 4.26413 18.4622 4.30199 18.2915 4.34083C18.2063 4.36037 18.12 4.38023 18.0326 4.40035C17.9453 4.42077 17.8578 4.44574 17.769 4.46869C17.5919 4.51588 17.411 4.56411 17.227 4.61311C17.0448 4.66804 16.8596 4.72385 16.6721 4.78038C16.5787 4.80932 16.4842 4.8366 16.3903 4.8675C16.2969 4.89942 16.2028 4.93145 16.1084 4.96369C16.0141 4.99598 15.9195 5.02837 15.8247 5.06092C15.7298 5.09321 15.6347 5.12565 15.5409 5.16263C15.3529 5.23438 15.1642 5.30643 14.9755 5.37849C14.7876 5.45204 14.6028 5.53353 14.4176 5.61064C14.3252 5.65 14.2326 5.68796 14.1414 5.72835C14.0508 5.77018 13.9605 5.81185 13.8705 5.85343C13.7807 5.895 13.6912 5.93647 13.6022 5.97768C13.5132 6.01884 13.4246 6.05938 13.3385 6.1041C13.1656 6.19137 12.9948 6.27761 12.8269 6.36241C12.6589 6.44663 12.4988 6.53958 12.3398 6.62515C12.1815 6.71232 12.0258 6.79546 11.879 6.88505C11.7313 6.97264 11.5876 7.05789 11.4487 7.14032C11.3093 7.2216 11.1801 7.30939 11.0534 7.38872C10.9276 7.46934 10.807 7.54666 10.6924 7.62015C10.5802 7.69716 10.4737 7.7702 10.3737 7.83885C10.274 7.90755 10.1806 7.97182 10.0943 8.03129C10.008 8.09076 9.93175 8.14971 9.86144 8.20068C9.76618 8.27103 9.68484 8.33107 9.61902 8.37965C9.50911 8.46079 9.48332 8.61403 9.56017 8.72704L11.6499 11.7994C11.7243 11.9087 11.8697 11.943 11.9848 11.878C12.0379 11.8481 12.1006 11.8126 12.1722 11.7723C12.2345 11.7378 12.302 11.697 12.3782 11.6574C12.4543 11.6177 12.5366 11.5749 12.6246 11.5291C12.7123 11.4832 12.8056 11.4344 12.904 11.383C13.004 11.335 13.1092 11.2846 13.219 11.232C13.3292 11.1806 13.4411 11.1217 13.5618 11.0704C13.6815 11.0179 13.8053 10.9635 13.9326 10.9077C14.0586 10.8497 14.1921 10.799 14.3271 10.7448C14.4628 10.6922 14.5988 10.6327 14.7412 10.5824C14.883 10.5313 15.0272 10.4793 15.1731 10.4267C15.2455 10.3992 15.32 10.376 15.3946 10.3521C15.4691 10.3281 15.544 10.3041 15.6191 10.2799C15.6941 10.2556 15.7694 10.2313 15.8449 10.2068C15.9209 10.1838 15.9979 10.1631 16.0744 10.1411C16.228 10.0986 16.3806 10.0514 16.5354 10.0119C16.6902 9.97359 16.8451 9.93527 16.9993 9.89715C17.0758 9.87678 17.1535 9.86084 17.2308 9.8449C17.308 9.82866 17.3849 9.81246 17.4616 9.79632C17.5381 9.78007 17.6143 9.76393 17.6901 9.74783C17.7661 9.73267 17.8424 9.72096 17.9178 9.7074C18.0685 9.68125 18.2174 9.65535 18.3639 9.62998C18.5109 9.6097 18.6554 9.58969 18.7971 9.57014Z" fill="#CF0631"/>
<path d="M4.54797 13.5425C4.49319 13.62 4.43821 13.6978 4.38297 13.776C4.32788 13.8541 4.27259 13.9325 4.21709 14.0111C4.16185 14.0899 4.11016 14.1716 4.05642 14.2519C3.95048 14.4138 3.84206 14.5743 3.73828 14.7379C3.63693 14.9029 3.53558 15.0679 3.43464 15.2323L3.35933 15.3554L3.28784 15.4805C3.24034 15.5636 3.19299 15.6466 3.1458 15.7292C2.95289 16.0568 2.78531 16.3918 2.615 16.7099C2.53572 16.8722 2.45773 17.0317 2.3814 17.1879C2.34354 17.2659 2.30604 17.3431 2.26906 17.4194C2.23424 17.4966 2.19989 17.573 2.16595 17.6484C2.09838 17.7989 2.03267 17.9454 1.96908 18.087C1.90976 18.2305 1.8524 18.369 1.79737 18.502C1.74342 18.6354 1.6889 18.7616 1.64243 18.8841C1.59657 19.0067 1.55304 19.1231 1.51209 19.2324C1.47134 19.3415 1.43322 19.4437 1.398 19.5382C1.36545 19.6336 1.33559 19.7213 1.30856 19.8004C1.27348 19.9045 1.24336 19.9939 1.21876 20.067C1.17517 20.1963 1.24145 20.3365 1.36885 20.3853L3.31389 21.131C3.43768 21.1785 3.5771 21.1231 3.6343 21.0035C3.66267 20.9442 3.69655 20.8733 3.7355 20.7919C3.76778 20.7248 3.80348 20.6505 3.84242 20.5695C3.88379 20.4897 3.9285 20.4036 3.97632 20.3114C4.02398 20.2196 4.07463 20.1216 4.12806 20.0185C4.18191 19.9156 4.24391 19.8101 4.30544 19.6987C4.36775 19.5879 4.43269 19.4724 4.49989 19.3529C4.57071 19.2357 4.6439 19.1143 4.71921 18.9896C4.75671 18.9274 4.79472 18.8643 4.8332 18.8004C4.87369 18.7378 4.91469 18.6744 4.95611 18.6102C5.03894 18.4823 5.12359 18.3517 5.20967 18.2187C5.39257 17.9598 5.57144 17.6871 5.77358 17.4241C5.82294 17.3576 5.87251 17.2909 5.92223 17.224L5.99676 17.1236L6.07485 17.0254C6.17884 16.8944 6.28323 16.7631 6.38763 16.6317C6.49393 16.5019 6.60426 16.3755 6.71149 16.248C6.76586 16.1847 6.81805 16.1201 6.87371 16.0586C6.92941 15.9972 6.98491 15.9359 7.0402 15.8749C7.09539 15.8139 7.15032 15.7532 7.205 15.6928C7.25915 15.632 7.31383 15.5723 7.37062 15.5151C7.48234 15.3994 7.59272 15.2851 7.70129 15.1726C7.80966 15.0603 7.92277 14.9562 8.02954 14.8508C8.13713 14.7463 8.24122 14.6431 8.3484 14.5486C8.45382 14.4526 8.55636 14.3593 8.6556 14.269C8.75401 14.1782 8.85542 14.0971 8.94908 14.0157C9.04337 13.9354 9.13374 13.8585 9.21967 13.7853C9.30405 13.7185 9.3841 13.6551 9.4593 13.5955C9.53409 13.536 9.60408 13.4802 9.66881 13.4286C9.69852 13.4041 9.73876 13.3747 9.77275 13.3489C9.80761 13.3225 9.84088 13.2974 9.87245 13.2737C9.9412 13.2217 10.0019 13.1759 10.0539 13.1367C10.1708 13.0485 10.1889 12.8802 10.0938 12.7688L7.87929 10.1744C7.78418 10.063 7.61515 10.0545 7.50967 10.1561C7.46279 10.2013 7.40796 10.2541 7.34596 10.3139C7.31749 10.3412 7.28747 10.3702 7.25601 10.4005C7.22398 10.4316 7.1935 10.4599 7.15378 10.5005C7.07786 10.5771 6.99579 10.6599 6.90806 10.7485C6.82079 10.837 6.72789 10.9313 6.62994 11.0306C6.53891 11.1292 6.44318 11.2329 6.34332 11.341C6.2447 11.45 6.13835 11.5598 6.03545 11.6802C5.93214 11.8 5.82537 11.9238 5.71556 12.0511C5.6044 12.1768 5.49686 12.3119 5.38622 12.449C5.27641 12.5867 5.16067 12.7242 5.05024 12.8698C4.94012 13.0155 4.82819 13.1636 4.71493 13.3136C4.65736 13.3879 4.60233 13.4647 4.54797 13.5425Z" fill="#CF0631"/>
<path d="M0.523783 22.6385C0.510837 22.7022 0.495673 22.7769 0.478497 22.8613C0.462765 22.9388 0.445332 23.0246 0.426351 23.118C0.407731 23.2135 0.389523 23.3263 0.369201 23.4415C0.349189 23.5577 0.327938 23.6814 0.305553 23.8118C0.294721 23.8768 0.282342 23.9439 0.272078 24.0117C0.262949 24.079 0.253665 24.1478 0.244123 24.218C0.207811 24.4992 0.159998 24.8019 0.132454 25.1251C0.116465 25.2862 0.100063 25.4516 0.0832998 25.6208C0.0694767 25.7901 0.0602441 25.9635 0.0483294 26.1393C0.0204768 26.4906 0.0153705 26.8549 0.00376525 27.2235L0 27.3621L0.000670525 27.5012C0.00118631 27.5941 0.0017021 27.6871 0.00221789 27.7804C0.00278526 27.8736 0.00335262 27.967 0.00386841 28.0604L0.00474525 28.2005L0.0101094 28.3408C0.0176915 28.5273 0.0252736 28.714 0.0328557 28.8999L0.038581 29.0389L0.0403346 29.0839L0.0428104 29.1175L0.047762 29.1845C0.0543641 29.2738 0.0609146 29.3629 0.0674651 29.4516C0.0740156 29.5404 0.0805661 29.6288 0.0870135 29.7167C0.0959366 29.8083 0.104757 29.8997 0.113628 29.9905C0.122551 30.0812 0.131423 30.1713 0.140243 30.2608C0.144679 30.3054 0.149114 30.35 0.15355 30.3943C0.159069 30.4379 0.164588 30.4814 0.170055 30.5247C0.192028 30.6975 0.213639 30.8675 0.234787 31.0339C0.260318 31.1995 0.285282 31.3616 0.309525 31.5193C0.332219 31.677 0.361464 31.8295 0.388337 31.977C0.390555 31.9888 0.392773 32.0005 0.394939 32.0122C0.417376 32.1328 0.522287 32.2201 0.64489 32.2201H1.33042C1.4768 32.2201 1.59296 32.0969 1.58435 31.9508C1.58203 31.9118 1.57965 31.8724 1.57702 31.8326C1.56846 31.6905 1.55814 31.5439 1.55484 31.3926C1.54989 31.2416 1.54484 31.0864 1.53963 30.9279C1.53865 30.7694 1.53767 30.6075 1.53669 30.4428C1.53643 30.4017 1.53617 30.3604 1.53591 30.319C1.53679 30.2782 1.53772 30.2372 1.53865 30.196C1.54045 30.1139 1.54226 30.0311 1.54412 29.9478C1.54592 29.8647 1.54778 29.781 1.54963 29.6969C1.55376 29.6088 1.55784 29.5203 1.56201 29.4315C1.56614 29.3426 1.57032 29.2534 1.57444 29.1639L1.57759 29.0967L1.57914 29.063L1.57934 29.0588C1.57934 29.0481 1.57955 29.0687 1.57965 29.0652L1.58027 29.057L1.58156 29.0408L1.59198 28.9107C1.6058 28.7371 1.61968 28.563 1.6336 28.3889L1.64423 28.2585L1.65924 28.1285C1.66925 28.0419 1.6792 27.9555 1.68915 27.8692C1.69906 27.783 1.70896 27.6969 1.71881 27.6112L1.73351 27.4829L1.75255 27.3554C1.80474 27.0165 1.8491 26.6832 1.91409 26.364C1.94457 26.2041 1.97186 26.0468 2.00317 25.8937C2.03726 25.7412 2.07058 25.5919 2.10302 25.4467C2.16306 25.1557 2.24089 24.8853 2.30423 24.6345C2.32048 24.572 2.33637 24.5106 2.35189 24.4508C2.36829 24.3919 2.38598 24.336 2.40228 24.2807C2.43514 24.1707 2.46634 24.0664 2.49564 23.9682C2.52561 23.8693 2.55021 23.7808 2.57889 23.6921C2.60896 23.6015 2.6365 23.5185 2.66147 23.4435C2.6886 23.3617 2.71258 23.2895 2.73311 23.2276C2.77927 23.0887 2.69866 22.9398 2.55712 22.902L0.838569 22.4438C0.696985 22.406 0.552977 22.4949 0.523783 22.6385Z" fill="#CF0631"/>
<path d="M19.9773 31.5461C20.5365 31.8194 21.1287 31.949 21.7118 31.949C23.1755 31.949 24.5822 31.1334 25.2683 29.7299C25.4005 29.4597 25.5028 29.1614 25.5693 28.8805L29.5706 11.5131L31.0945 4.89896L32.0385 0.80169C32.1484 0.324843 31.7691 0 31.3885 0C31.1658 0 30.9425 0.111359 30.8167 0.368686L28.8956 4.29812L26.0617 10.0949L18.1611 26.2551C17.2016 28.2177 18.0148 30.5866 19.9773 31.5461ZM21.8585 25.9532C22.9292 25.9532 23.7973 26.8211 23.7973 27.8919C23.7973 28.9626 22.9292 29.8307 21.8585 29.8307C20.7878 29.8307 19.9198 28.9626 19.9198 27.8919C19.9198 26.821 20.7878 25.9532 21.8585 25.9532Z" fill="#CF0631"/>
</svg>
