<svg width="38" height="38" viewBox="0 0 38 38" fill="none" xmlns="http://www.w3.org/2000/svg">
<path d="M24.9668 31.6464L26.541 33.2206L27.9805 31.7812V35.7734H10.0195V31.7812L11.459 33.2206L13.0332 31.6464L8.90625 27.5194L4.77931 31.6464L6.35349 33.2206L7.79296 31.7812V37.9999H30.207V31.7812L31.6465 33.2206L33.2207 31.6464L29.0937 27.5194L24.9668 31.6464Z" fill="#CF0631"/>
<path d="M6.67968 6.6796V0.652222L0.652306 6.6796H6.67968Z" fill="#CF0631"/>
<path d="M0 26.7188H17.8125V0H8.90625V8.90625H0V26.7188ZM4.45312 11.1328H13.3594V13.3594H4.45312V11.1328ZM4.45312 15.5859H13.3594V17.8125H4.45312V15.5859ZM4.45312 20.0391H13.3594V22.2656H4.45312V20.0391Z" fill="#CF0631"/>
<path d="M31.3203 6.6796H37.3477L31.3203 0.652222V6.6796Z" fill="#CF0631"/>
<path d="M29.0938 0H20.1875V26.7188H38V8.90625H29.0938V0ZM33.5469 22.2656H24.6406V20.0391H33.5469V22.2656ZM33.5469 17.8125H24.6406V15.5859H33.5469V17.8125ZM33.5469 11.1328V13.3594H24.6406V11.1328H33.5469Z" fill="#CF0631"/>
</svg>
