<svg width="27" height="27" viewBox="0 0 27 27" fill="none" xmlns="http://www.w3.org/2000/svg">
<path d="M13.5 6.75C9.77396 6.75 6.74994 9.77402 6.74994 13.5C6.74994 17.226 9.77396 20.25 13.5 20.25C17.226 20.25 20.25 17.2259 20.25 13.5C20.25 9.77395 17.226 6.75 13.5 6.75Z" fill="#CF0631"/>
<path d="M13.5 0C6.04127 0 0 6.04127 0 13.5C0 20.9587 6.04127 26.9999 13.5 26.9999C20.9587 26.9999 27 20.9587 27 13.5C27 6.0412 20.9587 0 13.5 0ZM13.5 24.3C7.53299 24.3 2.69996 19.467 2.69996 13.5C2.69996 7.53293 7.53299 2.70002 13.5 2.70002C19.4669 2.70002 24.3 7.53299 24.3 13.5C24.3 19.4669 19.467 24.3 13.5 24.3Z" fill="#CF0631"/>
</svg>
