<svg width="28" height="26" viewBox="0 0 28 26" fill="none" xmlns="http://www.w3.org/2000/svg">
<path d="M10.9846 22.7301C10.879 22.7301 10.7752 22.7025 10.6836 22.65C10.5919 22.5975 10.5156 22.522 10.4622 22.431C8.44263 18.9901 3.05838 11.6642 3.00428 11.5906C2.91806 11.4734 2.87688 11.3291 2.8883 11.1841C2.89971 11.039 2.96294 10.9029 3.06644 10.8007L4.72214 9.16465C4.82291 9.06508 4.95538 9.00397 5.09654 8.99195C5.23769 8.97993 5.3786 9.01776 5.49475 9.09887L10.8585 12.8443C14.447 8.24206 17.7802 5.06319 19.9731 3.18747C22.4417 1.07598 24.0131 0.125759 24.0788 0.0863837C24.1729 0.0298649 24.2807 5.55791e-06 24.3905 7.97868e-10H27.069C27.1918 -6.30022e-06 27.3117 0.0373084 27.4128 0.106997C27.5139 0.176686 27.5914 0.275459 27.6351 0.390221C27.6788 0.504983 27.6866 0.630315 27.6574 0.749603C27.6283 0.868891 27.5636 0.976501 27.4719 1.05817C19.8654 7.83328 11.5936 22.279 11.5112 22.4241C11.4586 22.5164 11.3826 22.5933 11.2909 22.647C11.1992 22.7007 11.095 22.7294 10.9888 22.7301H10.9846Z" fill="#CF0631"/>
<path d="M21.2021 26.0001H0.605775C0.445114 26.0001 0.291032 25.9362 0.177427 25.8226C0.0638226 25.709 0 25.5549 0 25.3943V4.79791C0 4.63725 0.0638226 4.48317 0.177427 4.36957C0.291032 4.25596 0.445114 4.19214 0.605775 4.19214H13.9625C14.1231 4.19214 14.2772 4.25596 14.3908 4.36957C14.5044 4.48317 14.5682 4.63725 14.5682 4.79791C14.5682 4.95858 14.5044 5.11266 14.3908 5.22626C14.2772 5.33987 14.1231 5.40369 13.9625 5.40369H1.21155V24.7885H20.5964V12.0377C20.5964 11.877 20.6602 11.7229 20.7738 11.6093C20.8874 11.4957 21.0415 11.4319 21.2021 11.4319C21.3628 11.4319 21.5169 11.4957 21.6305 11.6093C21.7441 11.7229 21.8079 11.877 21.8079 12.0377V25.3943C21.8079 25.5549 21.7441 25.709 21.6305 25.8226C21.5169 25.9362 21.3628 26.0001 21.2021 26.0001Z" fill="#CF0631"/>
</svg>
