<svg width="46" height="46" viewBox="0 0 46 46" fill="none" xmlns="http://www.w3.org/2000/svg">
<g clip-path="url(#clip0_51_25)">
<path d="M0.0898438 20.1552V43.9931L15.4142 32.0742L0.0898438 20.1552Z" fill="white"/>
<path d="M40.0703 13.9536V21.2827L44.596 17.7627L40.0703 13.9536Z" fill="white"/>
<path d="M23.8677 0.316497C23.3662 -0.105499 22.6336 -0.105499 22.1321 0.316497L18.5586 3.3242H27.4412L23.8677 0.316497Z" fill="white"/>
<path d="M5.92975 13.9536L1.40405 17.7627L5.92975 21.2827V13.9536Z" fill="white"/>
<path d="M18.0718 33.4219L1.8999 46H44.1002L27.9284 33.4219H18.0718Z" fill="white"/>
<path d="M30.5857 32.0742L45.9102 43.9932V20.155L30.5857 32.0742Z" fill="white"/>
<path d="M22.6603 16.1147C21.5672 16.1147 20.4365 17.1776 20.4365 18.9561C20.4365 20.7643 21.5394 21.979 22.5696 21.979C23.6544 21.979 24.5439 20.7098 24.6079 19.114L24.6096 18.7752C24.5612 17.2008 23.7733 16.1147 22.6603 16.1147Z" fill="white"/>
<path d="M27.9283 30.7266L37.375 23.3791V7.36719C37.375 6.62292 36.7716 6.01953 36.0273 6.01953H9.97266C9.22839 6.01953 8.625 6.62292 8.625 7.36719V23.3791L18.0717 30.7266H27.9283ZM13.4997 21.5542C12.8562 19.1073 13.1798 16.5277 14.4111 14.2907C15.6419 12.0545 17.6476 10.4003 20.0587 9.63278C22.6024 8.82284 25.3034 9.06146 27.6637 10.3046C30.0243 11.5479 31.749 13.6391 32.5198 16.1931C32.524 16.2069 32.5279 16.2209 32.5316 16.2349C33.0439 18.154 32.8922 19.9656 32.0398 22.1088C31.4636 23.5575 30.051 25.1055 27.8144 25.1055C27.0029 25.1055 26.2248 24.7727 25.6233 24.1683C25.481 24.0253 25.3528 23.8695 25.238 23.7045C24.4827 24.3188 23.5667 24.6742 22.5696 24.6742C21.2671 24.6742 20.0007 24.0419 19.0951 22.9394C18.222 21.8763 17.7413 20.4617 17.7413 18.956C17.7413 17.4436 18.2528 16.0441 19.1818 15.0155C20.0979 14.0012 21.3658 13.4193 22.6604 13.4193C23.3724 13.4193 24.049 13.589 24.657 13.9088C24.7749 13.2841 25.3225 12.8122 25.98 12.8122H25.9869C26.7311 12.8159 27.3315 13.4222 27.3279 14.1665L27.2908 21.6536C27.2896 21.8835 27.3805 22.1128 27.534 22.267C27.5871 22.3204 27.6942 22.41 27.8144 22.41C28.9018 22.41 29.3802 21.5027 29.5352 21.1127C30.1648 19.5299 30.2841 18.2837 29.933 16.9507C29.3694 15.103 28.1181 13.5901 26.4078 12.6894C24.6914 11.7853 22.7267 11.612 20.8763 12.201C17.2287 13.3621 15.1336 17.1693 16.1065 20.8685C16.9143 23.9405 19.6911 26.1471 22.8591 26.2348C23.603 26.2554 24.1896 26.8752 24.169 27.6192C24.1487 28.3506 23.5495 28.9296 22.8226 28.9296C22.8099 28.9296 22.7973 28.9294 22.7846 28.9291C20.6961 28.8713 18.6346 28.1294 16.9796 26.84C15.2601 25.5006 14.057 23.6728 13.4997 21.5542Z" fill="white"/>
</g>
<defs>
<clipPath id="clip0_51_25">
<rect width="46" height="46" fill="white"/>
</clipPath>
</defs>
</svg>
