<svg width="79" height="51" viewBox="0 0 79 51" fill="none" xmlns="http://www.w3.org/2000/svg">
<path d="M52.4038 47.82C52.7076 48.0556 52.9057 48.4019 52.9547 48.7832C53.0038 49.1645 52.8997 49.5497 52.6653 49.8544C52.5378 50.0361 52.368 50.184 52.1705 50.2853C51.973 50.3865 51.7538 50.4382 51.5319 50.4357C51.2075 50.4421 50.8904 50.3398 50.6309 50.1451C47.4129 47.7529 43.5098 46.4612 39.5 46.4612C35.4902 46.4612 31.5871 47.7529 28.3691 50.1451C28.0608 50.3801 27.6717 50.4831 27.2874 50.4313C26.9032 50.3796 26.5553 50.1773 26.3202 49.869C26.0851 49.5606 25.9821 49.1716 26.0339 48.7873C26.0856 48.4031 26.2879 48.0551 26.5963 47.82C30.3112 45.01 34.842 43.4895 39.5 43.4895C44.158 43.4895 48.6888 45.01 52.4038 47.82ZM39.5 29.191C31.7492 29.1721 24.2019 31.6709 17.9938 36.3113C17.8411 36.4258 17.7125 36.5692 17.6153 36.7334C17.518 36.8976 17.4541 37.0794 17.4271 37.2683C17.3726 37.6498 17.4719 38.0374 17.7031 38.3457C17.9344 38.654 18.2786 38.8578 18.6601 38.9123C18.849 38.9393 19.0414 38.9288 19.2263 38.8815C19.4111 38.8341 19.5848 38.7508 19.7375 38.6363C25.4513 34.3899 32.381 32.0968 39.5 32.0968C46.619 32.0968 53.5487 34.3899 59.2625 38.6363C59.513 38.8269 59.8196 38.9291 60.1344 38.9269C60.3596 38.9247 60.5813 38.8712 60.7827 38.7705C60.9842 38.6698 61.16 38.5245 61.2969 38.3457C61.5281 38.0374 61.6274 37.6498 61.5729 37.2683C61.5184 36.8868 61.3146 36.5425 61.0062 36.3113C54.7981 31.6709 47.2508 29.1721 39.5 29.191ZM39.5 14.8632C28.6487 14.8378 18.0862 18.3587 9.42032 24.8897C9.112 25.1248 8.90971 25.4728 8.85793 25.857C8.80615 26.2413 8.90913 26.6303 9.14422 26.9386C9.37931 27.247 9.72725 27.4493 10.1115 27.501C10.4957 27.5528 10.8848 27.4498 11.1931 27.2147C19.357 21.084 29.2905 17.7694 39.5 17.7694C49.7095 17.7694 59.6431 21.084 67.8069 27.2147C68.0574 27.4053 68.364 27.5075 68.6787 27.5054C68.9051 27.5101 69.1293 27.4597 69.3318 27.3584C69.5344 27.2571 69.7092 27.1081 69.8413 26.9241C70.0756 26.6194 70.1797 26.2342 70.1307 25.8529C70.0816 25.4716 69.8835 25.1253 69.5797 24.8897C60.9138 18.3587 50.3513 14.8378 39.5 14.8632ZM78.1531 13.4391C67.0244 5.03417 53.446 0.511435 39.5 0.564425C25.554 0.511435 11.9756 5.03417 0.846881 13.4391C0.538567 13.6703 0.334738 14.0146 0.280236 14.3961C0.225733 14.7776 0.32502 15.1652 0.556255 15.4735C0.787491 15.7818 1.13173 15.9856 1.51325 16.0401C1.89477 16.0946 2.28232 15.9953 2.59063 15.7641C13.2413 7.78398 26.1914 3.47067 39.5 3.47067C52.8086 3.47067 65.7587 7.78398 76.4094 15.7641C76.6599 15.9547 76.9665 16.0569 77.2812 16.0547C77.5064 16.0525 77.7282 15.999 77.9296 15.8983C78.131 15.7976 78.3069 15.6523 78.4437 15.4735C78.675 15.1652 78.7743 14.7776 78.7198 14.3961C78.6653 14.0146 78.4614 13.6703 78.1531 13.4391Z" fill="#CF0631"/>
</svg>
