<svg width="44" height="64" viewBox="0 0 44 64" fill="none" xmlns="http://www.w3.org/2000/svg">
<path d="M21.7436 12.3076C19.242 12.3105 16.8436 13.3056 15.0747 15.0745C13.3057 16.8435 12.3107 19.2419 12.3077 21.7435H14.7693C14.7693 19.8938 15.5041 18.1198 16.812 16.8119C18.12 15.504 19.8939 14.7692 21.7436 14.7692C23.5934 14.7692 25.3673 15.504 26.6753 16.8119C27.9832 18.1198 28.718 19.8938 28.718 21.7435H31.1795C31.1766 19.2419 30.1816 16.8435 28.4126 15.0745C26.6437 13.3056 24.2453 12.3105 21.7436 12.3076Z" fill="#CF0631"/>
<path d="M37.3333 21.7436C37.3333 17.6089 35.6908 13.6436 32.7672 10.7199C29.8435 7.7963 25.8782 6.15381 21.7436 6.15381C17.6089 6.15381 13.6436 7.7963 10.7199 10.7199C7.7963 13.6436 6.15381 17.6089 6.15381 21.7436H8.61535C8.61535 18.2617 9.99849 14.9225 12.4605 12.4605C14.9225 9.99849 18.2617 8.61535 21.7436 8.61535C25.2254 8.61535 28.5646 9.99849 31.0266 12.4605C33.4886 14.9225 34.8718 18.2617 34.8718 21.7436H37.3333Z" fill="#CF0631"/>
<path d="M43.4872 21.7436C43.4872 15.9768 41.1964 10.4463 37.1186 6.36855C33.0409 2.29084 27.5104 0 21.7436 0C15.9768 0 10.4463 2.29084 6.36855 6.36855C2.29084 10.4463 0 15.9768 0 21.7436H2.46154C2.46154 16.6297 4.49304 11.7252 8.10912 8.10912C11.7252 4.49303 16.6297 2.46154 21.7436 2.46154C26.8575 2.46154 31.762 4.49303 35.3781 8.10912C38.9942 11.7252 41.0257 16.6297 41.0257 21.7436H43.4872Z" fill="#CF0631"/>
<path d="M29.9488 64H38.1539V61.5385H34.9383L24.6819 30.7693H22.9744V24.7816C23.6805 24.496 24.2652 23.9737 24.6285 23.3042C24.9917 22.6348 25.1107 21.8598 24.9653 21.1122C24.8198 20.3645 24.4188 19.6908 23.831 19.2063C23.2432 18.7219 22.5053 18.457 21.7436 18.457C20.982 18.457 20.244 18.7219 19.6563 19.2063C19.0685 19.6908 18.6675 20.3645 18.522 21.1122C18.3765 21.8598 18.4956 22.6348 18.8588 23.3042C19.222 23.9737 19.8068 24.496 20.5129 24.7816V30.7693H18.8053L8.54892 61.5385H5.33337V64H13.5385V61.5385H11.1435L13.7418 53.7436H29.7454L32.3438 61.5385H29.9488V64ZM21.7436 20.9231C21.9059 20.9231 22.0646 20.9712 22.1995 21.0614C22.3344 21.1515 22.4396 21.2797 22.5017 21.4296C22.5638 21.5795 22.58 21.7445 22.5484 21.9037C22.5167 22.0629 22.4386 22.2091 22.3238 22.3238C22.2091 22.4386 22.0629 22.5167 21.9037 22.5484C21.7445 22.58 21.5796 22.5638 21.4296 22.5017C21.2797 22.4396 21.1516 22.3344 21.0614 22.1995C20.9712 22.0645 20.9231 21.9059 20.9231 21.7436C20.9233 21.526 21.0098 21.3174 21.1636 21.1636C21.3174 21.0097 21.5261 20.9232 21.7436 20.9231ZM20.5794 33.2308H22.9079L24.8224 38.9744H18.6649L20.5794 33.2308ZM17.8444 41.4359H25.6429L26.8736 45.1282H16.6136L17.8444 41.4359ZM14.5623 51.2821L15.7931 47.5898H27.6942L28.9249 51.2821H14.5623Z" fill="#CF0631"/>
</svg>
