<svg width="74" height="74" viewBox="0 0 74 74" fill="none" xmlns="http://www.w3.org/2000/svg">
<g clip-path="url(#clip0_48_812)">
<path d="M42.9111 71.832H21.3038C17.7253 71.832 14.8139 68.9207 14.8139 65.3421V35.9734C14.8139 32.3949 17.7254 29.4835 21.3038 29.4835H22.6465C24.0819 29.4338 24.0807 27.3646 22.6465 27.3155H21.3038C18.7217 27.3155 16.4015 28.4531 14.8139 30.2519V3.25059C14.8139 2.38078 14.4747 1.56387 13.8617 0.953361C11.8399 -1.0918 8.30267 0.375369 8.3099 3.25059V43.7924H6.79229C5.23826 43.7924 3.97388 45.0568 3.97388 46.6108V54.7047C3.97388 56.2587 5.23826 57.5231 6.79229 57.5231H12.6459V65.3421C12.6459 70.1161 16.5298 74 21.3038 74H42.9109C44.3463 73.9503 44.3453 71.8813 42.9111 71.832ZM10.4779 3.25059C10.4666 2.29883 11.666 1.80062 12.329 2.48658C12.5333 2.69023 12.6459 2.96152 12.6459 3.25059V43.7924H10.4779V3.25059ZM6.79229 55.3551C6.4337 55.3551 6.14189 55.0633 6.14189 54.7047V46.6108C6.14189 46.2522 6.4337 45.9604 6.79229 45.9604H12.6459V55.3551H6.79229Z" fill="#CF0631"/>
<path d="M67.2076 43.7924H65.69V17.1647C65.6402 15.7294 63.5711 15.7305 63.522 17.1647V43.7924H61.3539V3.25059C61.3427 2.29883 62.542 1.80062 63.205 2.48658C63.4094 2.69023 63.522 2.96152 63.522 3.25059V11.8726C63.5717 13.308 65.6408 13.3068 65.69 11.8726V3.25059C65.69 2.38078 65.3507 1.56387 64.7378 0.953361C62.7157 -1.0918 59.1787 0.375369 59.1859 3.25059V30.2519C57.5982 28.4531 55.2782 27.3155 52.6961 27.3155H27.7609C26.3255 27.3652 26.3267 29.4344 27.7609 29.4835H52.6961C56.2746 29.4835 59.1859 32.3949 59.1859 35.9734V65.3421C59.1859 68.9207 56.2744 71.832 52.6961 71.832H47.9809C46.5456 71.8817 46.5467 73.9509 47.9809 74H52.6961C57.47 74 61.3539 70.1161 61.3539 65.3421V57.5231H67.2076C68.7616 57.5231 70.026 56.2587 70.026 54.7047V46.6108C70.026 45.0568 68.7616 43.7924 67.2076 43.7924ZM67.858 54.7047C67.858 55.0633 67.5662 55.3551 67.2076 55.3551H61.3539V45.9604H67.2076C67.5662 45.9604 67.858 46.2522 67.858 46.6108V54.7047Z" fill="#CF0631"/>
<path d="M46.2308 58.4531H43.1422C41.7069 58.5028 41.708 60.5719 43.1422 60.6211H45.0472C44.7554 62.1706 43.7929 63.6155 41.7744 63.6155C39.321 63.6155 38.2038 61.5014 38.2038 59.5371C38.1713 56.3254 41.0421 54.2892 44.0539 56.1545C44.5501 56.4897 45.2239 56.3592 45.559 55.8632C45.894 55.3671 45.7636 54.6932 45.2675 54.358C41.2019 51.6386 35.9473 54.3171 36.0358 59.5371C36.0553 67.729 47.3503 67.9735 47.3146 59.5369C47.3148 58.9384 46.8296 58.4531 46.2308 58.4531Z" fill="#CF0631"/>
<path d="M30.8912 63.615C29.8655 63.6354 28.984 62.887 28.8425 61.8735C28.7597 61.2805 28.2132 60.8674 27.6192 60.9497C27.0262 61.0324 26.6127 61.5801 26.6953 62.173C26.9861 64.2747 28.8191 65.8278 30.9348 65.7826C33.1218 65.7385 34.9237 63.994 35.037 61.8111C35.0972 60.6488 34.6899 59.5448 33.89 58.7025C32.9359 57.6631 31.4473 57.2472 30.0812 57.4307L30.408 55.4585H33.3091C34.7444 55.4088 34.7433 53.3397 33.3091 53.2905H29.4887C28.9585 53.2905 28.5061 53.6741 28.4193 54.1973L27.6624 58.7653C27.5956 59.1683 27.7629 59.5734 28.0921 59.8152C28.4214 60.0572 28.86 60.0923 29.2247 59.9082C29.2331 59.9038 29.2627 59.8894 29.3087 59.8687C30.0625 59.4822 31.579 59.3342 32.3177 60.1954C32.7042 60.6024 32.9009 61.1364 32.8717 61.6989C32.8174 62.752 31.9473 63.5938 30.8912 63.615Z" fill="#CF0631"/>
<path d="M28.0859 41.6455C32.6917 36.4223 41.3088 36.4229 45.9141 41.6455C46.3178 42.0895 47.0036 42.1203 47.4455 41.7185C47.8883 41.3158 47.9211 40.6301 47.5185 40.1871C44.8293 37.2287 40.9954 35.532 37.0001 35.532C33.0049 35.532 29.171 37.2287 26.4818 40.1871C26.0791 40.6301 26.1118 41.3158 26.5548 41.7185C26.9975 42.121 27.6828 42.0886 28.0859 41.6455Z" fill="#CF0631"/>
<path d="M42.3358 44.8958C42.7395 45.3398 43.4255 45.3704 43.8672 44.9685C44.31 44.5657 44.3427 43.8801 43.9399 43.4373C40.3537 39.3715 33.6459 39.3721 30.0601 43.4373C29.6573 43.8801 29.6898 44.5658 30.1328 44.9685C30.5757 45.3713 31.2615 45.3388 31.6642 44.8958C34.422 41.7695 39.5781 41.7698 42.3358 44.8958Z" fill="#CF0631"/>
<path d="M36.9999 47.2572C37.6991 47.2572 38.3688 47.5536 38.8378 48.0706C39.2409 48.5151 39.9269 48.5464 40.369 48.1452C40.8125 47.743 40.8459 47.0575 40.4436 46.614C38.668 44.5953 35.3319 44.5956 33.5566 46.614C33.1543 47.0575 33.1876 47.743 33.6311 48.1452C34.0744 48.5473 34.7602 48.5141 35.1623 48.0706C35.6311 47.5538 36.3008 47.2572 36.9999 47.2572Z" fill="#CF0631"/>
</g>
<defs>
<clipPath id="clip0_48_812">
<rect width="74" height="74" fill="white"/>
</clipPath>
</defs>
</svg>
