<svg width="68" height="68" viewBox="0 0 68 68" fill="none" xmlns="http://www.w3.org/2000/svg">
<path d="M37.4613 66.0285L27.7116 57.6653C27.7107 57.6645 27.7098 57.6636 27.7087 57.6629L20.8571 51.7856V42.3264C20.8571 41.7074 20.3554 41.2056 19.7363 41.2056C19.1172 41.2056 18.6155 41.7074 18.6155 42.3264V51.7856L2.01144 66.0285C1.54145 66.4315 1.48735 67.1391 1.89039 67.6088C2.29328 68.0785 3.00087 68.133 3.47071 67.7299L12.6197 59.8819L18.6153 63.0694V66.8792C18.6153 67.4982 19.117 68 19.7361 68C20.3553 68 20.8569 67.4982 20.8569 66.8792V63.0696L26.8527 59.882L36.0016 67.7299C36.213 67.9113 36.4725 68 36.7307 68C37.0465 68 37.3603 67.8673 37.5819 67.609C37.9854 67.1391 37.9313 66.4315 37.4613 66.0285ZM14.447 58.3146L18.6156 54.7388V60.5308L14.447 58.3146ZM20.8572 60.5308V54.7388L25.0258 58.3146L20.8572 60.5308Z" fill="#CF0631"/>
<path d="M56.4522 35.9341H56.4516C55.8326 35.9344 55.3311 36.4364 55.3314 37.0554C55.3326 39.5503 54.6447 41.5037 53.2869 42.862L53.2864 42.8624L53.2851 42.8638C50.9192 45.2281 46.7177 45.5639 41.4546 43.8096C35.9285 41.9674 29.998 38.066 24.7558 32.8239C19.5136 27.5817 15.612 21.6513 13.77 16.125C12.0152 10.8606 12.3516 6.65866 14.7172 4.29303C17.0827 1.92756 21.2846 1.59117 26.5491 3.34589C32.0753 5.18803 38.0058 9.08944 43.2479 14.3316C47.3548 18.4385 50.6577 22.9907 52.7994 27.4963C53.0651 28.0555 53.7342 28.293 54.2928 28.0274C54.8518 27.7617 55.0896 27.093 54.8239 26.5339C52.5735 21.7999 49.1187 17.0321 44.8331 12.7465C39.3496 7.26299 33.1078 3.16925 27.2578 1.21937C21.1462 -0.817942 16.1295 -0.289374 13.1321 2.70793C13.131 2.70898 13.1301 2.71002 13.1291 2.71107L12.0754 3.76462C8.27172 7.5683 6.93469 13.3356 8.31073 20.0042C9.65194 26.503 13.428 33.1199 18.9438 38.6357C26.9185 46.6102 34.6956 48.8299 39.8155 49.2874C40.5593 49.3539 41.2996 49.3865 42.0308 49.3865C46.9012 49.3865 51.3739 47.9452 53.8149 45.5042L54.8702 44.4487C54.8707 44.4483 54.8711 44.448 54.8716 44.4475C56.6402 42.6786 57.5743 40.1222 57.5728 37.0545C57.5727 36.4355 57.071 35.9341 56.4522 35.9341ZM40.015 47.0547C35.2648 46.63 28.0281 44.5496 20.5289 37.0506C12.3699 28.8917 8.65787 18.6213 10.4641 11.1901C10.5824 12.9311 10.9731 14.8227 11.6434 16.8338C13.5934 22.6838 17.687 28.9254 23.1705 34.4088C28.6541 39.8923 34.8957 43.9861 40.7456 45.9361C42.2037 46.4221 43.5987 46.7609 44.9196 46.9562C43.4263 47.1596 41.7789 47.2123 40.015 47.0547Z" fill="#CF0631"/>
<path d="M66.0515 21.1158L61.0321 16.0966C60.5943 15.6589 59.8847 15.6589 59.447 16.0966C59.0093 16.5343 59.0093 17.244 59.447 17.6815L59.7114 17.9458L57.3338 20.3232C56.8959 20.7609 56.8959 21.4704 57.3336 21.9081C57.5526 22.1271 57.8393 22.2365 58.1263 22.2365C58.413 22.2365 58.7 22.1271 58.9187 21.9081L61.2965 19.5306L63.6742 21.9081L48.0031 37.579C47.5654 38.0167 47.5654 38.7263 48.0031 39.1639C48.222 39.3827 48.5089 39.4922 48.7957 39.4922C49.0825 39.4922 49.3694 39.3828 49.5883 39.1639L66.0515 22.7008C66.2616 22.4907 66.3796 22.2055 66.3796 21.9083C66.3796 21.6111 66.2616 21.3259 66.0515 21.1158Z" fill="#CF0631"/>
</svg>
