<svg width="75" height="75" viewBox="0 0 75 75" fill="none" xmlns="http://www.w3.org/2000/svg">
<g clip-path="url(#clip0_48_822)">
<path d="M10 60H45C47.7612 60 50 57.7612 50 55V12.5C50 12.1686 49.8682 11.8506 49.6338 11.6162L38.3838 0.366211C38.1494 0.131836 37.8314 0 37.5 0H10C7.23877 0 5 2.23877 5 5V55C5 57.7612 7.23877 60 10 60ZM7.5 5C7.5 3.61938 8.61938 2.5 10 2.5H36.9824L47.5 13.0176V55C47.5 56.3806 46.3806 57.5 45 57.5H10C8.61938 57.5 7.5 56.3806 7.5 55V5Z" fill="#CF0631"/>
<path d="M12.5 53.75H42.5C43.1903 53.75 43.75 53.1903 43.75 52.5V27.5C43.75 26.8097 43.1903 26.25 42.5 26.25H12.5C11.8097 26.25 11.25 26.8097 11.25 27.5V52.5C11.25 53.1903 11.8097 53.75 12.5 53.75ZM13.75 43.75H18.75V51.25H13.75V43.75ZM28.75 35V28.75H33.75V41.25H13.75V36.25H27.5C28.1903 36.25 28.75 35.6903 28.75 35ZM26.25 43.75V51.25H21.25V43.75H26.25ZM28.75 43.75H33.75V51.25H28.75V43.75ZM41.25 51.25H36.25V28.75H41.25V51.25ZM26.25 28.75V33.75H13.75V28.75H26.25Z" fill="#CF0631"/>
<path d="M11.25 6.25H13.75V8.75H11.25V6.25Z" fill="#CF0631"/>
<path d="M16.25 6.25H25V8.75H16.25V6.25Z" fill="#CF0631"/>
<path d="M11.25 11.25H28.75V13.75H11.25V11.25Z" fill="#CF0631"/>
<path d="M67.5 28.0176V70C67.5 71.3806 66.3806 72.5 65 72.5H30C28.6194 72.5 27.5 71.3806 27.5 70V62.5H25V70C25 72.7612 27.2388 75 30 75H65C67.7612 75 70 72.7612 70 70V27.5C70 27.1686 69.8682 26.8506 69.6338 26.6162L58.3838 15.3662C58.1494 15.1318 57.8314 15 57.5 15H52.5V17.5H56.9824L67.5 28.0176Z" fill="#CF0631"/>
<path d="M55 66.25H48.75V62.5H46.25V66.25H41.25V62.5H38.75V66.25H33.75V62.5H31.25V67.5C31.25 68.1903 31.8097 68.75 32.5 68.75H62.5C63.1903 68.75 63.75 68.1903 63.75 67.5V42.5C63.75 41.8097 63.1903 41.25 62.5 41.25H52.5V43.75H55V56.25H52.5V58.75H55V66.25ZM61.25 43.75V66.25H57.5V43.75H61.25Z" fill="#CF0631"/>
<path d="M72.5 41.25H75V65H72.5V41.25Z" fill="#CF0631"/>
<path d="M72.5 67.5H75V70H72.5V67.5Z" fill="#CF0631"/>
<path d="M0 6.25H2.5V42.5H0V6.25Z" fill="#CF0631"/>
</g>
<defs>
<clipPath id="clip0_48_822">
<rect width="75" height="75" fill="white"/>
</clipPath>
</defs>
</svg>
