<svg width="32" height="45" viewBox="0 0 32 45" fill="none" xmlns="http://www.w3.org/2000/svg">
<path fill-rule="evenodd" clip-rule="evenodd" d="M16 0C24.8299 0 32 7.26907 32 16.2209C32 20.6393 29.6237 26.1398 26.6942 31.1233C22.4599 38.3295 17.1644 44.4642 17.1644 44.4642C16.8712 44.8053 16.4459 45 16 45C15.5541 45 15.1288 44.8053 14.8356 44.4642C14.8356 44.4642 9.54013 38.3295 5.30581 31.1233C2.37626 26.1398 0 20.6393 0 16.2209C0 7.26907 7.17006 0 16 0ZM16 8.37209C11.7265 8.37209 8.25806 11.8884 8.25806 16.2209C8.25806 20.5535 11.7265 24.0698 16 24.0698C20.2735 24.0698 23.7419 20.5535 23.7419 16.2209C23.7419 11.8884 20.2735 8.37209 16 8.37209Z" fill="white"/>
</svg>
