<svg width="22" height="16" viewBox="0 0 22 16" fill="none" xmlns="http://www.w3.org/2000/svg">
<path d="M21.6741 1.0985L15.0424 7.68751L21.6741 14.2765C21.794 14.0259 21.8667 13.7489 21.8667 13.4531V1.92188C21.8667 1.62604 21.794 1.34907 21.6741 1.0985Z" fill="white"/>
<path d="M19.9448 0H1.92189C1.62604 0 1.34908 0.0727324 1.09851 0.192615L9.57454 8.62594C10.324 9.37538 11.5427 9.37538 12.2922 8.62594L20.7682 0.192615C20.5176 0.0727324 20.2407 0 19.9448 0Z" fill="white"/>
<path d="M0.192615 1.0985C0.0727323 1.34907 0 1.62604 0 1.92188V13.4531C0 13.749 0.0727323 14.026 0.192615 14.2765L6.82433 7.68751L0.192615 1.0985Z" fill="white"/>
<path d="M14.1365 8.59338L13.198 9.53181C11.9493 10.7806 9.91736 10.7806 8.66861 9.53181L7.73022 8.59338L1.09851 15.1824C1.34908 15.3023 1.62604 15.375 1.92189 15.375H19.9448C20.2407 15.375 20.5176 15.3023 20.7682 15.1824L14.1365 8.59338Z" fill="white"/>
</svg>
