<svg width="43" height="43" viewBox="0 0 43 43" fill="none" xmlns="http://www.w3.org/2000/svg">
<g clip-path="url(#clip0_14_197)">
<path d="M21.5 0C17.2477 0 13.0909 1.26095 9.55525 3.6234C6.01959 5.98585 3.26388 9.34369 1.6366 13.2723C0.00931554 17.2009 -0.416456 21.5238 0.413126 25.6944C1.24271 29.865 3.29039 33.696 6.29721 36.7028C9.30404 39.7096 13.135 41.7573 17.3056 42.5869C21.4762 43.4165 25.7991 42.9907 29.7277 41.3634C33.6563 39.7361 37.0142 36.9804 39.3766 33.4448C41.7391 29.9091 43 25.7523 43 21.5C42.9993 15.7981 40.7339 10.3299 36.702 6.29799C32.6701 2.26611 27.2019 0.000712608 21.5 0ZM21.3791 16.3803C22.7715 16.3801 24.107 16.9326 25.0922 17.9165C26.0774 18.9005 26.6316 20.2353 26.6331 21.6277C26.6331 21.7622 26.5797 21.8912 26.4846 21.9863C26.3894 22.0815 26.2604 22.1349 26.1259 22.1349C25.9913 22.1349 25.8623 22.0815 25.7672 21.9863C25.672 21.8912 25.6186 21.7622 25.6186 21.6277C25.6129 20.505 25.1644 19.43 24.3706 18.6361C23.5768 17.8423 22.5017 17.3938 21.3791 17.3881C21.2454 17.3881 21.1173 17.335 21.0228 17.2405C20.9283 17.146 20.8752 17.0179 20.8752 16.8842C20.8752 16.7506 20.9283 16.6224 21.0228 16.5279C21.1173 16.4334 21.2454 16.3803 21.3791 16.3803ZM21.3791 12.2214C23.8694 12.2355 26.2537 13.2311 28.0147 14.992C29.7756 16.753 30.7712 19.1373 30.7853 21.6277C30.7836 21.7611 30.7295 21.8885 30.6345 21.9822C30.5396 22.076 30.4115 22.1286 30.2781 22.1286C30.1446 22.1286 30.0166 22.076 29.9216 21.9822C29.8267 21.8885 29.7725 21.7611 29.7708 21.6277C29.7598 19.4054 28.8722 17.2773 27.3008 15.7059C25.7294 14.1345 23.6013 13.2469 21.3791 13.2359C21.246 13.2337 21.1192 13.1792 21.0259 13.0843C20.9327 12.9895 20.8804 12.8617 20.8804 12.7287C20.8804 12.5956 20.9327 12.4679 21.0259 12.373C21.1192 12.2781 21.246 12.2237 21.3791 12.2214ZM32.6128 33.1772C31.6197 34.1602 30.3171 34.7694 28.926 34.9017C27.5349 35.0339 26.1409 34.681 24.9803 33.9028C21.8582 31.8217 18.9484 29.4385 16.293 26.7877C13.5902 24.089 11.1639 21.127 9.05017 17.9458C8.29248 16.7903 7.95629 15.409 8.09825 14.0346C8.24022 12.6602 8.85167 11.3768 9.82954 10.4006L10.8508 9.37938C11.3124 8.91798 11.9383 8.65879 12.5909 8.65879C13.2436 8.65879 13.8695 8.91798 14.3311 9.37938L16.8439 11.8989C17.0744 12.1248 17.2573 12.3946 17.3819 12.6923C17.5066 12.99 17.5703 13.3096 17.5695 13.6323C17.5612 14.0222 17.4672 14.4055 17.2942 14.755C17.1212 15.1045 16.8734 15.4116 16.5684 15.6547C16.1989 16.0165 15.9651 16.4945 15.9063 17.0084C15.8476 17.5223 15.9675 18.0407 16.2459 18.4766C17.3435 20.2178 18.64 21.8255 20.1092 23.267C21.4511 24.5838 22.9285 25.7549 24.5167 26.7608C24.9547 27.0389 25.4744 27.1591 25.9899 27.1017C26.5055 27.0443 26.986 26.8126 27.352 26.445C27.5691 26.1628 27.8433 25.9296 28.1566 25.7605C28.4698 25.5914 28.8153 25.4903 29.1703 25.4636C29.5253 25.437 29.8819 25.4855 30.2169 25.606C30.5519 25.7265 30.8578 25.9162 31.1145 26.1628L33.6274 28.6756C33.8567 28.9038 34.0388 29.1749 34.1633 29.4735C34.2878 29.7721 34.3523 30.0923 34.353 30.4158C34.4336 31.5781 33.3384 32.4381 32.6128 33.1772ZM33.923 21.6277C34.0641 14.8887 28.1247 8.94266 21.3791 9.08375C21.2456 9.08207 21.1183 9.02788 21.0245 8.93294C20.9307 8.83799 20.8782 8.70992 20.8782 8.57648C20.8782 8.44305 20.9307 8.31498 21.0245 8.22003C21.1183 8.12508 21.2456 8.0709 21.3791 8.06922C23.1596 8.06903 24.9228 8.41961 26.5679 9.10092C28.2129 9.78223 29.7077 10.7809 30.9667 12.04C32.2258 13.299 33.2245 14.7938 33.9058 16.4388C34.5871 18.0839 34.9377 19.8471 34.9375 21.6277C34.9352 21.7607 34.8808 21.8875 34.7859 21.9808C34.691 22.0741 34.5633 22.1263 34.4302 22.1263C34.2972 22.1263 34.1695 22.0741 34.0746 21.9808C33.9797 21.8875 33.9253 21.7607 33.923 21.6277Z" fill="#CF0631"/>
</g>
<defs>
<clipPath id="clip0_14_197">
<rect width="43" height="43" fill="white"/>
</clipPath>
</defs>
</svg>
