<svg width="39" height="39" viewBox="0 0 39 39" fill="none" xmlns="http://www.w3.org/2000/svg">
<path d="M16.7287 13.2908C16.6962 13.4836 16.7404 13.6815 16.8517 13.8421C16.9631 14.0028 17.1329 14.1136 17.3248 14.1509C17.3436 14.1509 17.3617 14.1585 17.3798 14.1634C19.1449 14.682 20.7416 15.6579 22.0081 16.9922C23.3568 18.2678 24.3365 19.8835 24.8438 21.6692C24.8604 21.7675 24.8966 21.8614 24.9503 21.9454C25.0039 22.0294 25.074 22.1017 25.1562 22.1581C25.2384 22.2144 25.3311 22.2536 25.4288 22.2734C25.5265 22.2931 25.6271 22.293 25.7248 22.273C25.9109 22.229 26.0734 22.1162 26.1799 21.9574C26.2863 21.7985 26.3287 21.6053 26.2986 21.4164C25.7497 19.3272 24.625 17.4343 23.0527 15.9532C21.5735 14.3808 19.6832 13.2544 17.5964 12.7017C17.4032 12.6649 17.2034 12.7063 17.0407 12.8168C16.878 12.9272 16.7658 13.0977 16.7287 13.2908Z" fill="white"/>
<path d="M16.7216 7.24688C16.7097 7.34351 16.717 7.44153 16.743 7.53534C16.769 7.62915 16.8133 7.71692 16.8732 7.79362C16.9332 7.87032 17.0077 7.93446 17.0924 7.98237C17.1772 8.03027 17.2705 8.06101 17.3672 8.07281C17.9863 8.16752 22.0484 8.91198 26.0666 12.9372C30.3724 17.2367 30.9275 21.6234 30.931 21.6652C30.9656 21.844 31.0629 22.0047 31.2054 22.1182C31.3478 22.2318 31.5261 22.2909 31.7081 22.285C31.7239 22.286 31.7397 22.286 31.7555 22.285C31.9486 22.2592 32.1239 22.1587 32.2436 22.005C32.3633 21.8513 32.4178 21.6567 32.3955 21.4632C32.3885 21.4012 31.821 16.603 27.1119 11.8933C22.4028 7.18351 17.606 6.61594 17.558 6.60828C17.3593 6.58399 17.1591 6.63904 17.0009 6.76149C16.9243 6.81965 16.8601 6.89256 16.8121 6.97593C16.7642 7.0593 16.7334 7.15143 16.7216 7.24688Z" fill="white"/>
<path d="M7.35969 3.08972C7.19899 2.82033 6.97862 2.5914 6.71555 2.42056C6.45247 2.24973 6.1537 2.14153 5.84223 2.10431C5.75743 2.09405 5.67208 2.08893 5.58665 2.08899C5.31645 2.08881 5.04887 2.14206 4.79932 2.24568C4.54977 2.3493 4.32317 2.50124 4.13257 2.69277L0.808648 6.01739C0.539355 6.28303 0.328519 6.60199 0.189649 6.95384C0.0507799 7.30569 -0.0130612 7.68267 0.00221618 8.06063C0.155424 11.473 1.43889 20.3493 10.0408 28.9575C18.6428 37.5657 27.5233 38.8429 30.9412 38.9982C31.3184 39.0118 31.6944 38.9475 32.0457 38.8093C32.397 38.6712 32.7161 38.4622 32.9831 38.1953L36.3077 34.8707C36.5293 34.6489 36.6974 34.3796 36.7994 34.0831C36.9013 33.7867 36.9344 33.4709 36.8961 33.1598C36.8578 32.8486 36.749 32.5503 36.5782 32.2875C36.4073 32.0246 36.1788 31.8042 35.91 31.6428L28.5936 27.2555C28.1999 27.0191 27.7384 26.921 27.2825 26.9769C26.8266 27.0328 26.4025 27.2395 26.0775 27.564L23.8491 29.7862C23.5424 30.0952 23.1459 30.2993 22.7163 30.3693C22.2866 30.4393 21.8458 30.3718 21.4569 30.1762C20.1477 29.5216 17.8628 28.0174 14.4233 24.5779C10.9838 21.1383 9.47884 18.8521 8.82352 17.5442C8.62731 17.1561 8.55896 16.7159 8.62827 16.2865C8.69757 15.8572 8.90097 15.4608 9.20933 15.1542L11.4378 12.9257C11.7625 12.6009 11.9693 12.1769 12.0252 11.7211C12.0811 11.2653 11.9829 10.8039 11.7463 10.4103L7.35969 3.08972Z" fill="white"/>
<path d="M17.2368 0.608654C17.2047 0.800245 17.2488 0.996772 17.3597 1.15629C17.4705 1.3158 17.6394 1.42567 17.8301 1.46244C18.4986 1.60729 24.2433 2.98826 30.1292 8.87423C36.378 15.1244 37.5229 21.1177 37.5341 21.1775C37.5774 21.3668 37.6909 21.5325 37.8517 21.6412C38.0126 21.7499 38.2086 21.7935 38.4004 21.7632C38.5922 21.7265 38.7618 21.6156 38.8722 21.4545C38.9827 21.2935 39.0251 21.0953 38.9902 20.9032C38.9422 20.6406 37.7249 14.3793 31.1752 7.82824C24.6256 1.2772 18.3621 0.0605868 18.0989 0.0125351C18.0562 0.0044291 18.0128 0.000233414 17.9694 0C17.7957 0.000919109 17.6277 0.0621047 17.4941 0.17311C17.3604 0.284116 17.2695 0.438059 17.2368 0.608654Z" fill="white"/>
</svg>
