<svg width="23" height="33" viewBox="0 0 23 33" fill="none" xmlns="http://www.w3.org/2000/svg">
<path d="M11.4998 6.30615C10.218 6.30764 8.98914 6.8175 8.08276 7.72388C7.17639 8.63025 6.66653 9.85913 6.66504 11.1409H7.92629C7.92629 10.1932 8.30278 9.28423 8.97295 8.61406C9.64312 7.9439 10.5521 7.5674 11.4998 7.5674C12.4476 7.5674 13.3565 7.9439 14.0267 8.61406C14.6969 9.28423 15.0734 10.1932 15.0734 11.1409H16.3346C16.3331 9.85913 15.8233 8.63025 14.9169 7.72388C14.0105 6.8175 12.7816 6.30764 11.4998 6.30615Z" fill="#CF0631"/>
<path d="M19.4875 11.141C19.4875 9.02246 18.6459 6.9907 17.1479 5.49268C15.6499 3.99466 13.6181 3.15308 11.4996 3.15308C9.3811 3.15308 7.34935 3.99466 5.85132 5.49268C4.3533 6.9907 3.51172 9.02246 3.51172 11.141H4.77297C4.77297 9.35696 5.48167 7.64601 6.74316 6.38452C8.00465 5.12302 9.7156 4.41432 11.4996 4.41432C13.2836 4.41432 14.9946 5.12302 16.2561 6.38452C17.5176 7.64601 18.2263 9.35696 18.2263 11.141H19.4875Z" fill="#CF0631"/>
<path d="M22.6409 11.141C22.6409 8.18624 21.4672 5.35248 19.3778 3.26313C17.2885 1.17378 14.4547 0 11.4999 0C8.54513 0 5.71137 1.17378 3.62202 3.26313C1.53267 5.35248 0.358887 8.18624 0.358887 11.141H1.62013C1.62013 8.52075 2.66104 6.00779 4.51386 4.15497C6.36667 2.30215 8.87963 1.26125 11.4999 1.26125C14.1202 1.26125 16.6332 2.30215 18.486 4.15497C20.3388 6.00779 21.3797 8.52075 21.3797 11.141H22.6409Z" fill="#CF0631"/>
<path d="M15.7038 32.7924H19.908V31.5312H18.2604L13.0052 15.7656H12.1303V12.6976C12.492 12.5513 12.7917 12.2837 12.9778 11.9406C13.1639 11.5976 13.2249 11.2005 13.1503 10.8175C13.0758 10.4344 12.8703 10.0892 12.5692 9.84097C12.268 9.59276 11.8899 9.45703 11.4996 9.45703C11.1094 9.45703 10.7313 9.59276 10.4301 9.84097C10.1289 10.0892 9.92348 10.4344 9.84893 10.8175C9.77438 11.2005 9.83539 11.5976 10.0215 11.9406C10.2076 12.2837 10.5072 12.5513 10.869 12.6976V15.7656H9.9941L4.7389 31.5312H3.09131V32.7924H7.29547V31.5312H6.0683L7.39965 27.5372H15.5996L16.931 31.5312H15.7038V32.7924ZM11.4996 10.7206C11.5828 10.7206 11.6641 10.7453 11.7332 10.7915C11.8023 10.8376 11.8562 10.9033 11.888 10.9801C11.9199 11.057 11.9282 11.1415 11.912 11.223C11.8957 11.3046 11.8557 11.3795 11.7969 11.4383C11.7381 11.4971 11.6632 11.5371 11.5816 11.5534C11.5001 11.5696 11.4156 11.5612 11.3387 11.5294C11.2619 11.4976 11.1963 11.4437 11.1501 11.3746C11.1039 11.3054 11.0792 11.2242 11.0792 11.141C11.0793 11.0295 11.1236 10.9226 11.2024 10.8438C11.2813 10.765 11.3882 10.7207 11.4996 10.7206ZM10.9031 17.0268H12.0962L13.0771 19.9698H9.92214L10.9031 17.0268ZM9.50173 21.231H13.4975L14.1282 23.1229H8.8711L9.50173 21.231ZM7.82006 26.276L8.45069 24.3841H14.5486L15.1792 26.276H7.82006Z" fill="#CF0631"/>
</svg>
