<svg width="30" height="30" viewBox="0 0 30 30" fill="none" xmlns="http://www.w3.org/2000/svg">
<g clip-path="url(#clip0_62_419)">
<path d="M17.3962 29.1211H8.63648C7.18573 29.1211 6.00546 27.9408 6.00546 26.4901V14.5838C6.00546 13.1331 7.18579 11.9528 8.63648 11.9528H9.18083C9.76274 11.9326 9.76227 11.0938 9.18083 11.0739H8.63648C7.58969 11.0739 6.64906 11.5351 6.00546 12.2643V1.3178C6.00546 0.965181 5.86793 0.634003 5.61943 0.386498C4.79975 -0.44262 3.36576 0.152177 3.36869 1.3178V17.7537H2.75344C2.12343 17.7537 1.61084 18.2663 1.61084 18.8963V22.1776C1.61084 22.8076 2.12343 23.3202 2.75344 23.3202H5.12653V26.4901C5.12653 28.4254 6.7011 30 8.63648 30H17.3961C17.978 29.9798 17.9776 29.1411 17.3962 29.1211ZM4.24761 1.3178C4.24304 0.931958 4.72926 0.729981 4.99803 1.00807C5.08089 1.09063 5.12653 1.20062 5.12653 1.3178V17.7537H4.24761V1.3178ZM2.75344 22.4413C2.60807 22.4413 2.48976 22.323 2.48976 22.1776V18.8963C2.48976 18.7509 2.60807 18.6326 2.75344 18.6326H5.12653V22.4413H2.75344Z" fill="#CF0631"/>
<path d="M27.246 17.7537H26.6308V6.95868C26.6106 6.37677 25.7718 6.37724 25.7518 6.95868V17.7537H24.8729V1.3178C24.8684 0.931958 25.3546 0.729981 25.6234 1.00807C25.7062 1.09063 25.7518 1.20062 25.7518 1.3178V4.81322C25.772 5.39513 26.6108 5.39466 26.6308 4.81322V1.3178C26.6308 0.965181 26.4933 0.634003 26.2448 0.386498C25.425 -0.44262 23.9911 0.152177 23.994 1.3178V12.2643C23.3503 11.5351 22.4098 11.0739 21.363 11.0739H11.2541C10.6722 11.094 10.6727 11.9329 11.2541 11.9528H21.363C22.8137 11.9528 23.994 13.1331 23.994 14.5838V26.4901C23.994 27.9408 22.8137 29.1211 21.363 29.1211H19.4514C18.8695 29.1412 18.87 29.9801 19.4514 30H21.363C23.2984 30 24.8729 28.4254 24.8729 26.4901V23.3202H27.246C27.876 23.3202 28.3886 22.8076 28.3886 22.1776V18.8963C28.3886 18.2663 27.876 17.7537 27.246 17.7537ZM27.5097 22.1776C27.5097 22.323 27.3914 22.4413 27.246 22.4413H24.8729V18.6326H27.246C27.3914 18.6326 27.5097 18.7509 27.5097 18.8963V22.1776Z" fill="#CF0631"/>
<path d="M18.742 23.6972H17.4898C16.9079 23.7174 16.9084 24.5562 17.4898 24.5762H18.2621C18.1438 25.2044 17.7536 25.7901 16.9353 25.7901C15.9407 25.7901 15.4878 24.9331 15.4878 24.1367C15.4746 22.8347 16.6385 22.0092 17.8595 22.7654C18.0606 22.9013 18.3338 22.8484 18.4696 22.6473C18.6054 22.4462 18.5526 22.1729 18.3514 22.0371C16.7032 20.9346 14.573 22.0205 14.6088 24.1367C14.6168 27.4577 19.1958 27.5569 19.1814 24.1366C19.1814 23.894 18.9847 23.6972 18.742 23.6972Z" fill="#CF0631"/>
<path d="M12.5231 25.7899C12.1074 25.7981 11.75 25.4947 11.6926 25.0838C11.659 24.8434 11.4375 24.676 11.1967 24.7093C10.9563 24.7428 10.7886 24.9649 10.8221 25.2053C10.94 26.0573 11.6831 26.6869 12.5408 26.6686C13.4274 26.6507 14.1579 25.9435 14.2039 25.0585C14.2283 24.5873 14.0632 24.1398 13.7389 23.7983C13.3521 23.3769 12.7486 23.2083 12.1948 23.2827L12.3273 22.4832H13.5034C14.0853 22.463 14.0848 21.6242 13.5034 21.6042H11.9546C11.7396 21.6042 11.5562 21.7598 11.5211 21.9719L11.2142 23.8238C11.1871 23.9871 11.2549 24.1514 11.3884 24.2494C11.5219 24.3475 11.6997 24.3617 11.8475 24.2871C11.8509 24.2853 11.863 24.2795 11.8816 24.2711C12.1872 24.1144 12.802 24.0544 13.1015 24.4035C13.2582 24.5685 13.3379 24.785 13.3261 25.0131C13.304 25.44 12.9513 25.7812 12.5231 25.7899Z" fill="#CF0631"/>
<path d="M11.3861 16.8834C13.2534 14.7659 16.7468 14.7661 18.6138 16.8834C18.7775 17.0634 19.0555 17.0758 19.2346 16.9129C19.4142 16.7497 19.4275 16.4717 19.2642 16.2921C18.174 15.0928 16.6197 14.4049 15 14.4049C13.3804 14.4049 11.8261 15.0928 10.7359 16.2921C10.5726 16.4717 10.5858 16.7497 10.7654 16.9129C10.9449 17.0761 11.2227 17.063 11.3861 16.8834Z" fill="#CF0631"/>
<path d="M17.1628 18.2009C17.3264 18.3809 17.6045 18.3934 17.7836 18.2304C17.9631 18.0671 17.9764 17.7892 17.8131 17.6097C16.3592 15.9614 13.6398 15.9616 12.1861 17.6097C12.0228 17.7892 12.036 18.0672 12.2156 18.2304C12.3951 18.3937 12.6732 18.3805 12.8364 18.2009C13.9545 16.9335 16.0448 16.9336 17.1628 18.2009Z" fill="#CF0631"/>
<path d="M14.9997 19.1583C15.2831 19.1583 15.5547 19.2785 15.7448 19.4881C15.9082 19.6683 16.1863 19.681 16.3655 19.5183C16.5453 19.3553 16.5589 19.0773 16.3958 18.8976C15.6759 18.0792 14.3235 18.0793 13.6037 18.8976C13.4407 19.0773 13.4541 19.3553 13.634 19.5183C13.8137 19.6813 14.0917 19.6679 14.2547 19.4881C14.4447 19.2785 14.7163 19.1583 14.9997 19.1583Z" fill="#CF0631"/>
</g>
<defs>
<clipPath id="clip0_62_419">
<rect width="30" height="30" fill="white"/>
</clipPath>
</defs>
</svg>
