<svg width="25" height="25" viewBox="0 0 25 25" fill="none" xmlns="http://www.w3.org/2000/svg">
<g clip-path="url(#clip0_62_377)">
<path d="M13.7726 24.2751L10.1881 21.2004C10.1878 21.2001 10.1874 21.1998 10.1871 21.1995L7.66807 19.0388V15.5611C7.66807 15.3335 7.48364 15.149 7.25602 15.149C7.0284 15.149 6.84396 15.3335 6.84396 15.5611V19.0388L0.739525 24.2751C0.566736 24.4233 0.546847 24.6834 0.695023 24.8561C0.843144 25.0288 1.10329 25.0489 1.27602 24.9006L4.63962 22.0153L6.8439 23.1872V24.5879C6.8439 24.8155 7.02834 25 7.25596 25C7.48358 25 7.66802 24.8155 7.66802 24.5879V23.1873L9.87236 22.0154L13.2359 24.9006C13.3136 24.9673 13.409 25 13.504 25C13.62 25 13.7354 24.9512 13.8169 24.8562C13.9652 24.6834 13.9454 24.4233 13.7726 24.2751ZM5.31144 21.4391L6.84401 20.1245V22.2539L5.31144 21.4391ZM7.66813 22.2539V20.1245L9.20071 21.4391L7.66813 22.2539Z" fill="#CF0631"/>
<path d="M20.7543 13.2111H20.7541C20.5265 13.2112 20.3422 13.3957 20.3423 13.6233C20.3427 14.5405 20.0898 15.2587 19.5906 15.7581L19.5905 15.7583L19.59 15.7587C18.7201 16.628 17.1755 16.7514 15.2405 16.1065C13.2089 15.4292 11.0285 13.9949 9.10125 12.0676C7.17397 10.1403 5.73958 7.96004 5.06237 5.92833C4.4172 3.99287 4.54087 2.44804 5.41059 1.57832C6.28025 0.708661 7.82508 0.584989 9.76054 1.23011C11.7923 1.90736 13.9726 3.34171 15.8998 5.26898C17.4097 6.77887 18.624 8.45248 19.4114 10.1089C19.5091 10.3145 19.7551 10.4018 19.9604 10.3042C20.166 10.2065 20.2534 9.96066 20.1557 9.75513C19.3283 8.01465 18.0582 6.26182 16.4826 4.68622C14.4666 2.67022 12.1718 1.16517 10.0211 0.448296C7.7742 -0.300714 5.92984 -0.106388 4.82783 0.995563C4.82745 0.995948 4.82712 0.996332 4.82673 0.996717L4.43934 1.38405C3.04093 2.78246 2.54937 4.9028 3.05527 7.35448C3.54837 9.74376 4.93661 12.1764 6.96448 14.2043C9.89635 17.1361 12.7556 17.9522 14.6379 18.1204C14.9114 18.1448 15.1835 18.1568 15.4524 18.1568C17.2429 18.1568 18.8873 17.6269 19.7847 16.7295L20.1727 16.3414C20.1729 16.3413 20.1731 16.3412 20.1732 16.341C20.8235 15.6907 21.1669 14.7508 21.1663 13.623C21.1663 13.3954 20.9818 13.2111 20.7543 13.2111ZM14.7113 17.2995C12.9649 17.1434 10.3043 16.3785 7.54724 13.6215C4.54763 10.6219 3.1829 6.84606 3.84697 4.11401C3.89043 4.75407 4.0341 5.44952 4.28051 6.18891C4.99743 8.33963 6.50243 10.6343 8.51843 12.6503C10.5344 14.6663 12.8292 16.1714 14.9799 16.8883C15.5159 17.0669 16.0288 17.1915 16.5144 17.2633C15.9654 17.3381 15.3597 17.3575 14.7113 17.2995Z" fill="#CF0631"/>
<path d="M24.2835 7.76311L22.4381 5.91781C22.2771 5.75689 22.0163 5.75689 21.8554 5.91781C21.6944 6.07873 21.6944 6.33965 21.8554 6.50051L21.9525 6.59765L21.0784 7.47171C20.9175 7.63263 20.9175 7.89349 21.0784 8.05441C21.1589 8.1349 21.2643 8.17511 21.3698 8.17511C21.4752 8.17511 21.5807 8.1349 21.6611 8.05441L22.5353 7.1803L23.4095 8.05441L17.648 13.8157C17.4871 13.9767 17.4871 14.2376 17.648 14.3984C17.7285 14.4789 17.834 14.5191 17.9394 14.5191C18.0449 14.5191 18.1504 14.4789 18.2308 14.3984L24.2835 8.34582C24.3607 8.26857 24.4041 8.16374 24.4041 8.05446C24.4041 7.94519 24.3607 7.84036 24.2835 7.76311Z" fill="#CF0631"/>
</g>
<defs>
<clipPath id="clip0_62_377">
<rect width="25" height="25" fill="white"/>
</clipPath>
</defs>
</svg>
