<svg width="45" height="45" viewBox="0 0 45 45" fill="none" xmlns="http://www.w3.org/2000/svg">
<g clip-path="url(#clip0_22_307)">
<path d="M20.4967 33.6965C19.1278 33.5987 17.8078 33.2565 16.5367 32.6698C16.3411 32.572 16.1211 32.572 15.8767 32.6698C15.6322 32.7676 15.4611 32.9142 15.3633 33.1098L14.19 35.6031C11.6478 34.2342 9.69221 32.2787 8.32332 29.7365L10.8167 28.5631C11.0122 28.4654 11.1589 28.2942 11.2567 28.0498C11.3544 27.8054 11.3544 27.5854 11.2567 27.3898C10.67 26.1187 10.3278 24.7987 10.23 23.4298C10.23 22.9409 10.0589 22.5498 9.71666 22.2565C9.37443 21.9631 8.95888 21.8165 8.46999 21.8165H2.01666C1.72332 21.8165 1.47888 21.8898 1.28332 22.0365C1.08777 22.1831 0.98999 22.4031 0.98999 22.6965C1.08777 26.3142 2.0411 29.6631 3.84999 32.7431C5.65888 35.8231 8.10332 38.2676 11.1833 40.0765C14.2633 41.8854 17.6122 42.7898 21.23 42.7898C21.5233 42.7898 21.7433 42.7165 21.89 42.5698C22.0367 42.4231 22.11 42.2031 22.11 41.9098V35.4565C22.11 34.9676 21.9633 34.552 21.67 34.2098C21.3767 33.8676 20.9855 33.6965 20.4967 33.6965ZM20.35 41.0298C17.2211 40.8342 14.3611 39.9542 11.77 38.3898C9.17888 36.8254 7.1011 34.7476 5.53666 32.1565C3.97221 29.5654 3.09221 26.7054 2.89666 23.5765H8.46999C8.56777 24.8476 8.81221 26.0698 9.20332 27.2431L6.70999 28.4165C6.51443 28.5142 6.36777 28.6854 6.26999 28.9298C6.17221 29.1742 6.17221 29.4431 6.26999 29.7365C7.05221 31.3987 8.15221 32.9387 9.56999 34.3565C10.9878 35.7742 12.5278 36.8742 14.19 37.6565C14.4833 37.7542 14.7522 37.7542 14.9967 37.6565C15.2411 37.5587 15.4122 37.412 15.51 37.2165L16.6833 34.7231C17.8567 35.1142 19.0789 35.3587 20.35 35.4565V41.0298ZM19.47 20.7898V19.9098C19.47 19.7142 19.3722 19.5187 19.1767 19.3231C18.9811 19.1276 18.7367 19.0298 18.4433 19.0298H15.8033C15.51 19.0298 15.2655 18.932 15.07 18.7365C14.8744 18.5409 14.7767 18.3209 14.7767 18.0765C14.7767 17.832 14.8744 17.612 15.07 17.4165C15.2655 17.2209 15.51 17.1231 15.8033 17.1231H18.4433C19.2255 17.1231 19.8855 17.392 20.4233 17.9298C20.9611 18.4676 21.23 19.1276 21.23 19.9098V20.7898C21.23 21.572 20.9611 22.232 20.4233 22.7698C19.8855 23.3076 19.2255 23.5765 18.4433 23.5765H17.5633C17.27 23.5765 17.05 23.6742 16.9033 23.8698C16.7567 24.0654 16.6833 24.3098 16.6833 24.6031V26.3631H20.35C20.5455 26.3631 20.7411 26.4609 20.9367 26.6565C21.1322 26.852 21.23 27.072 21.23 27.3165C21.23 27.5609 21.1322 27.7565 20.9367 27.9031C20.7411 28.0498 20.5455 28.1231 20.35 28.1231H15.8033C15.51 28.2209 15.2655 28.172 15.07 27.9765C14.8744 27.7809 14.7767 27.5365 14.7767 27.2431V24.4565C14.7767 23.772 15.0455 23.1609 15.5833 22.6231C16.1211 22.0854 16.7811 21.8165 17.5633 21.8165H18.4433C18.7367 21.8165 18.9567 21.7187 19.1033 21.5231C19.25 21.3276 19.3233 21.0831 19.3233 20.7898H19.47ZM27.6833 23.5765H24.0167C23.7233 23.5765 23.5033 23.5031 23.3567 23.3565C23.21 23.2098 23.1367 22.9898 23.1367 22.6965V18.1498C23.1367 17.8565 23.21 17.6365 23.3567 17.4898C23.5033 17.3431 23.6989 17.2454 23.9433 17.1965C24.1878 17.1476 24.4078 17.2209 24.6033 17.4165C24.7989 17.612 24.8967 17.8565 24.8967 18.1498V21.8165H27.6833V18.1498C27.6833 17.8565 27.7567 17.6365 27.9033 17.4898C28.05 17.3431 28.27 17.2454 28.5633 17.1965C28.8567 17.1476 29.0767 17.2209 29.2233 17.4165C29.37 17.612 29.4433 17.8565 29.4433 18.1498V27.2431C29.4433 27.5365 29.37 27.7565 29.2233 27.9031C29.0767 28.0498 28.8567 28.1231 28.5633 28.1231C28.27 28.1231 28.05 28.0498 27.9033 27.9031C27.7567 27.7565 27.6833 27.5365 27.6833 27.2431V23.5765ZM41.47 22.6965C41.47 25.7276 40.8344 28.5876 39.5633 31.2765C38.2922 33.9654 36.5078 36.2631 34.21 38.1698C31.9122 40.0765 29.3455 41.4209 26.51 42.2031H26.2167C25.7278 42.2031 25.4344 41.9587 25.3367 41.4698C25.2389 41.2742 25.2633 41.0542 25.41 40.8098C25.5567 40.5654 25.7278 40.4431 25.9233 40.4431C28.7589 39.6609 31.3011 38.292 33.55 36.3365L31.6433 34.4298C31.4478 34.2342 31.35 34.0142 31.35 33.7698C31.35 33.5254 31.4478 33.3054 31.6433 33.1098C31.8389 32.9142 32.0589 32.8165 32.3033 32.8165C32.5478 32.8165 32.7678 32.9142 32.9633 33.1098L34.87 35.0165C36.2389 33.452 37.3389 31.692 38.17 29.7365C39.0011 27.7809 39.4655 25.7276 39.5633 23.5765H36.7767C36.5811 23.5765 36.3855 23.5031 36.19 23.3565C35.9944 23.2098 35.8967 22.9898 35.8967 22.6965C35.8967 22.4031 35.9944 22.1831 36.19 22.0365C36.3855 21.8898 36.5811 21.8165 36.7767 21.8165H39.5633C39.4655 19.6654 39.0011 17.612 38.17 15.6565C37.3389 13.7009 36.2389 11.9409 34.87 10.3765L32.9633 12.2831C32.7678 12.4787 32.5478 12.5765 32.3033 12.5765C32.0589 12.5765 31.8389 12.4787 31.6433 12.2831C31.4478 12.0876 31.35 11.8676 31.35 11.6231C31.35 11.3787 31.4478 11.1587 31.6433 10.9631L33.55 9.05646C31.9855 7.68757 30.2255 6.58757 28.27 5.75646C26.3144 4.92535 24.2611 4.46091 22.11 4.36313V7.1498C22.11 7.34535 22.0367 7.54091 21.89 7.73646C21.7433 7.93202 21.5233 8.0298 21.23 8.0298C20.9367 8.0298 20.7167 7.93202 20.57 7.73646C20.4233 7.54091 20.35 7.34535 20.35 7.1498V4.36313C18.1989 4.46091 16.1455 4.92535 14.19 5.75646C12.2344 6.58757 10.4744 7.68757 8.90999 9.05646L10.8167 10.9631C11.0122 11.1587 11.11 11.3787 11.11 11.6231C11.11 11.8676 11.0122 12.0876 10.8167 12.2831C10.6211 12.4787 10.4011 12.5765 10.1567 12.5765C9.91221 12.5765 9.69221 12.4787 9.49666 12.2831L7.58999 10.3765C5.63443 12.6254 4.26555 15.1676 3.48332 18.0031C3.48332 18.1987 3.3611 18.3698 3.11666 18.5165C2.87221 18.6631 2.62777 18.6876 2.38332 18.5898C2.13888 18.492 1.94332 18.3454 1.79666 18.1498C1.64999 17.9542 1.62555 17.7098 1.72332 17.4165C2.50555 14.5809 3.84999 12.0142 5.75666 9.71646C7.66332 7.41869 9.9611 5.63424 12.65 4.36313C15.3389 3.09202 18.1989 2.45646 21.23 2.45646C24.8478 2.55424 28.1967 3.50758 31.2767 5.31646C34.3567 7.12535 36.8255 9.5698 38.6833 12.6498C40.5411 15.7298 41.47 19.0787 41.47 22.6965Z" fill="#010101"/>
</g>
<defs>
<clipPath id="clip0_22_307">
<rect width="44.02" height="44" fill="white" transform="matrix(1 0 0 -1 0.97998 44.6965)"/>
</clipPath>
</defs>
</svg>
