<svg width="45" height="45" viewBox="0 0 45 45" fill="none" xmlns="http://www.w3.org/2000/svg">
<g clip-path="url(#clip0_22_297)">
<path d="M31.5724 16.848C32.4524 15.968 32.8435 14.9902 32.7458 13.9147C32.648 12.8391 32.2324 11.9347 31.4991 11.2013C30.7658 10.468 29.8613 10.0525 28.7858 9.95467C27.7102 9.8569 26.7324 10.248 25.8524 11.128C25.2658 11.8125 24.8747 12.5458 24.6791 13.328L13.5324 16.408L8.98577 11.8613C8.3991 11.2747 7.69021 11.0058 6.8591 11.0547C6.02799 11.1036 5.3191 11.4702 4.73243 12.1547C2.97243 14.5013 1.82355 17.1413 1.28577 20.0747C0.74799 23.008 0.943546 25.9169 1.87243 28.8013C2.80132 31.6858 4.31688 34.1791 6.4191 36.2813C8.52132 38.3836 11.0147 39.8991 13.8991 40.828C16.7835 41.7569 19.6924 41.9524 22.6258 41.4147C25.5591 40.8769 28.1991 39.728 30.5458 37.968C31.2302 37.3813 31.5969 36.6724 31.6458 35.8413C31.6947 35.0102 31.4258 34.3013 30.8391 33.7147L26.2924 29.168L29.3724 18.0213C30.1547 17.8258 30.888 17.4347 31.5724 16.848ZM26.8791 12.1547C27.6613 11.3725 28.5169 11.128 29.4458 11.4213C30.3747 11.7147 30.9858 12.3258 31.2791 13.2547C31.5724 14.1836 31.328 15.0391 30.5458 15.8213C29.7635 16.6036 28.908 16.848 27.9791 16.5547C27.0502 16.2613 26.4391 15.6502 26.1458 14.7213C25.8524 13.7924 26.0969 12.9369 26.8791 12.1547ZM24.8258 14.7947C24.9235 15.3813 25.1191 15.8702 25.4124 16.2613L19.3991 22.2747L14.5591 17.4347L24.8258 14.7947ZM30.2524 35.768C30.2524 36.1591 30.1058 36.5013 29.8124 36.7947C27.5635 38.4569 25.0702 39.5324 22.3324 40.0213C19.5947 40.5102 16.9058 40.3391 14.2658 39.508C11.6258 38.6769 9.32799 37.2836 7.37243 35.328C5.41688 33.3724 4.02355 31.0747 3.19243 28.4347C2.36132 25.7947 2.19021 23.1058 2.6791 20.368C3.16799 17.6302 4.24355 15.1369 5.90577 12.888C6.1991 12.5947 6.54132 12.4236 6.93243 12.3747C7.32355 12.3258 7.66577 12.4969 7.9591 12.888L29.8124 34.7413C30.2035 35.0347 30.3502 35.3769 30.2524 35.768ZM20.4258 23.3013L26.4391 17.288C26.8302 17.5813 27.3191 17.7769 27.9058 17.8747L25.2658 28.1413L20.4258 23.3013ZM36.9991 5.70134C36.1191 4.91912 35.1413 4.30801 34.0658 3.86801C32.9902 3.42801 31.8658 3.20801 30.6924 3.20801C30.4969 3.20801 30.3258 3.2569 30.1791 3.35468C30.0324 3.45245 29.9591 3.59912 29.9591 3.79467C29.9591 3.99023 30.0324 4.16134 30.1791 4.30801C30.3258 4.45467 30.4969 4.52801 30.6924 4.52801C32.7458 4.52801 34.5058 5.26134 35.9724 6.72801C37.4391 8.19467 38.1724 9.95467 38.1724 12.008C38.1724 12.2036 38.2458 12.3747 38.3924 12.5213C38.5391 12.668 38.7102 12.7413 38.9058 12.7413C39.1013 12.7413 39.248 12.668 39.3458 12.5213C39.4435 12.3747 39.4924 12.2036 39.4924 12.008C39.4924 10.8347 39.2724 9.71023 38.8324 8.63467C38.3924 7.55912 37.7813 6.58134 36.9991 5.70134ZM30.6924 6.72801C30.4969 6.72801 30.3258 6.80134 30.1791 6.94801C30.0324 7.09467 29.9591 7.26579 29.9591 7.46134C29.9591 7.65689 30.0324 7.82801 30.1791 7.97467C30.3258 8.12134 30.4969 8.19467 30.6924 8.19467C31.768 8.19467 32.6724 8.56134 33.4058 9.29467C34.1391 10.028 34.5058 10.9325 34.5058 12.008C34.5058 12.2036 34.5791 12.3747 34.7258 12.5213C34.8724 12.668 35.0435 12.7413 35.2391 12.7413C35.4347 12.7413 35.6058 12.668 35.7524 12.5213C35.8991 12.3747 35.9724 12.2036 35.9724 12.008C35.9724 10.5413 35.4591 9.29467 34.4324 8.26801C33.4058 7.24134 32.1591 6.72801 30.6924 6.72801Z" fill="#010101"/>
</g>
<defs>
<clipPath id="clip0_22_297">
<rect width="44.02" height="44" fill="white" transform="matrix(1 0 0 -1 0.97998 44.4214)"/>
</clipPath>
</defs>
</svg>
