<svg width="45" height="45" viewBox="0 0 45 45" fill="none" xmlns="http://www.w3.org/2000/svg">
<g clip-path="url(#clip0_22_302)">
<path d="M1.01666 16.8291C0.918879 17.6114 1.08999 18.2714 1.52999 18.8091C1.96999 19.3469 2.53221 19.6647 3.21666 19.7625C3.9011 19.8602 4.53666 19.7136 5.12332 19.3225L6.14999 18.4425V43.2291C6.14999 43.6202 6.29666 43.9625 6.58999 44.2558C6.88332 44.5491 7.22555 44.6958 7.61666 44.6958H38.4167C38.8078 44.6958 39.15 44.5491 39.4433 44.2558C39.7367 43.9625 39.8833 43.6202 39.8833 43.2291V18.4425L40.91 19.3225C41.3989 19.6158 41.9367 19.7625 42.5233 19.7625C43.3055 19.7625 43.99 19.4202 44.5767 18.7358C44.9678 18.1491 45.1144 17.5136 45.0167 16.8291C44.9189 16.1447 44.5767 15.6069 43.99 15.2158L39.8833 12.2825V5.82914C39.8833 5.43803 39.7367 5.0958 39.4433 4.80247C39.15 4.50914 38.8078 4.36247 38.4167 4.36247H34.75C34.3589 4.36247 34.0167 4.50914 33.7233 4.80247C33.43 5.0958 33.2833 5.43803 33.2833 5.82914V7.44247L24.4833 1.1358C24.0922 0.842468 23.6033 0.695801 23.0167 0.695801C22.43 0.695801 21.9411 0.842468 21.55 1.1358L2.04332 15.2158C1.45666 15.6069 1.11443 16.1447 1.01666 16.8291ZM38.4167 43.2291H7.61666V17.4158L23.0167 6.26913L38.4167 17.4158V43.2291ZM34.75 5.82914H38.4167V11.2558L34.75 8.6158V5.82914ZM2.92332 16.3891L22.43 2.30914C22.8211 2.0158 23.2122 2.0158 23.6033 2.30914L43.11 16.3891C43.3055 16.5847 43.4278 16.8291 43.4767 17.1225C43.5255 17.4158 43.4767 17.6602 43.33 17.8558C43.1833 18.0514 42.9633 18.1736 42.67 18.2225C42.3767 18.2714 42.0833 18.2469 41.79 18.1491L23.4567 4.80247C23.1633 4.60691 22.87 4.60691 22.5767 4.80247L4.24332 18.1491C3.94999 18.2469 3.65666 18.2958 3.36332 18.2958C3.06999 18.2958 2.84999 18.1736 2.70332 17.9291C2.55666 17.6847 2.50777 17.4158 2.55666 17.1225C2.60555 16.8291 2.72777 16.5847 2.92332 16.3891ZM13.19 19.4691C12.9944 19.5669 12.8967 19.7136 12.8967 19.9091C12.8967 20.1047 12.97 20.2758 13.1167 20.4225C13.2633 20.5691 13.4344 20.6425 13.63 20.6425C13.8255 20.6425 14.0211 20.5936 14.2167 20.4958C15.39 19.3225 16.7344 18.418 18.25 17.7825C19.7655 17.1469 21.3544 16.8291 23.0167 16.8291C24.6789 16.8291 26.2678 17.1469 27.7833 17.7825C29.2989 18.418 30.6433 19.3225 31.8167 20.4958C32.0122 20.5936 32.2078 20.6425 32.4033 20.6425C32.5989 20.6425 32.77 20.5691 32.9167 20.4225C33.0633 20.2758 33.1367 20.1047 33.1367 19.9091C33.1367 19.7136 33.0389 19.5669 32.8433 19.4691C31.0833 17.7091 29.0055 16.5114 26.61 15.8758C24.2144 15.2402 21.8189 15.2402 19.4233 15.8758C17.0278 16.5114 14.95 17.7091 13.19 19.4691ZM17.2967 23.5758C18.8611 22.0114 20.7678 21.2291 23.0167 21.2291C25.2655 21.2291 27.1722 22.0114 28.7367 23.5758C28.8344 23.7714 28.9811 23.8447 29.1767 23.7958C29.3722 23.7469 29.5433 23.6736 29.69 23.5758C29.8367 23.478 29.91 23.3314 29.91 23.1358C29.91 22.9402 29.8611 22.7447 29.7633 22.5491C28.4922 21.3758 27.05 20.5691 25.4367 20.1291C23.8233 19.6891 22.21 19.6891 20.5967 20.1291C18.9833 20.5691 17.5411 21.3758 16.27 22.5491C16.1722 22.7447 16.1233 22.9402 16.1233 23.1358C16.1233 23.3314 16.1967 23.478 16.3433 23.5758C16.49 23.6736 16.6611 23.7469 16.8567 23.7958C17.0522 23.8447 17.1989 23.7714 17.2967 23.5758ZM26.0967 26.9491C26.4878 26.9491 26.7322 26.8025 26.83 26.5091C26.9278 26.2158 26.8789 25.9225 26.6833 25.6291C25.6078 24.6514 24.3611 24.1625 22.9433 24.1625C21.5255 24.1625 20.3278 24.6514 19.35 25.6291C19.1544 25.8247 19.1055 26.0691 19.2033 26.3625C19.3011 26.6558 19.4722 26.8269 19.7167 26.8758C19.9611 26.9247 20.1811 26.8514 20.3767 26.6558C21.1589 25.9714 22.0389 25.6291 23.0167 25.6291C23.9944 25.6291 24.8744 25.9714 25.6567 26.6558C25.7544 26.8514 25.9011 26.9491 26.0967 26.9491ZM28.15 31.4958C29.1278 31.4958 30.0078 31.838 30.79 32.5225C30.8878 32.718 31.0344 32.8158 31.23 32.8158C31.4255 32.8158 31.5967 32.7425 31.7433 32.5958C31.89 32.4491 31.9633 32.278 31.9633 32.0825C31.9633 31.8869 31.9144 31.6914 31.8167 31.4958C30.8389 30.518 29.6167 30.0291 28.15 30.0291C26.9767 30.0291 25.95 30.3714 25.07 31.0558C24.19 31.7402 23.5789 32.6447 23.2367 33.7691C22.8944 34.8936 22.9189 35.9691 23.31 36.9958C23.7011 38.0225 24.3855 38.8536 25.3633 39.4891C26.3411 40.1247 27.4167 40.3936 28.59 40.2958C29.7633 40.198 30.7411 39.758 31.5233 38.9758C31.7189 38.878 31.8167 38.6825 31.8167 38.3891V35.1625C31.8167 34.9669 31.7433 34.7958 31.5967 34.6491C31.45 34.5025 31.2789 34.4291 31.0833 34.4291H28.8833C28.6878 34.4291 28.5167 34.5025 28.37 34.6491C28.2233 34.7958 28.15 34.9669 28.15 35.1625C28.15 35.358 28.2233 35.5291 28.37 35.6758C28.5167 35.8225 28.6878 35.8958 28.8833 35.8958H30.35V38.0958C29.6655 38.5847 28.8833 38.8291 28.0033 38.8291C27.1233 38.8291 26.3167 38.4625 25.5833 37.7291C24.85 36.9958 24.4833 36.1402 24.4833 35.1625C24.4833 34.1847 24.85 33.3291 25.5833 32.5958C26.3167 31.8625 27.1722 31.4958 28.15 31.4958ZM20.8167 31.4958C21.0122 31.4958 21.1833 31.4225 21.33 31.2758C21.4767 31.1291 21.55 30.958 21.55 30.7625C21.55 30.5669 21.4767 30.3958 21.33 30.2491C21.1833 30.1025 21.0122 30.0291 20.8167 30.0291H16.4167C16.0255 30.0291 15.7811 30.2247 15.6833 30.6158L14.95 34.4291C14.8522 34.7225 14.95 34.9669 15.2433 35.1625C15.5367 35.358 15.8544 35.3091 16.1967 35.0158C16.5389 34.7225 16.9544 34.5269 17.4433 34.4291C17.9322 34.3314 18.3967 34.4047 18.8367 34.6491C19.2767 34.8936 19.6189 35.2358 19.8633 35.6758C20.1078 36.1158 20.1811 36.5802 20.0833 37.0691C19.9855 37.558 19.7411 37.9736 19.35 38.3158C18.9589 38.658 18.5189 38.8291 18.03 38.8291C17.5411 38.8291 17.0767 38.7069 16.6367 38.4625C16.1967 38.218 15.9278 37.8514 15.83 37.3625C15.7322 37.0691 15.5367 36.898 15.2433 36.8491C14.95 36.8002 14.7055 36.8736 14.51 37.0691C14.3144 37.2647 14.2655 37.5091 14.3633 37.8025C14.6567 38.5847 15.1455 39.1958 15.83 39.6358C16.5144 40.0758 17.2722 40.2714 18.1033 40.2225C18.9344 40.1736 19.6678 39.8802 20.3033 39.3425C20.9389 38.8047 21.33 38.1202 21.4767 37.2891C21.6233 36.458 21.5255 35.6758 21.1833 34.9425C20.8411 34.2091 20.2544 33.6469 19.4233 33.2558C18.5922 32.8647 17.6878 32.8158 16.71 33.1091L17.0033 31.4958H20.8167Z" fill="#010101"/>
</g>
<defs>
<clipPath id="clip0_22_302">
<rect width="44.02" height="44" fill="white" transform="matrix(1 0 0 -1 0.97998 44.6958)"/>
</clipPath>
</defs>
</svg>
