<svg width="45" height="45" viewBox="0 0 45 45" fill="none" xmlns="http://www.w3.org/2000/svg">
<g clip-path="url(#clip0_22_312)">
<path d="M43.23 8.6158H25.0433L31.6433 2.16247C31.7411 1.96692 31.79 1.74691 31.79 1.50247C31.79 1.25803 31.7167 1.06247 31.57 0.915802C31.4233 0.769135 31.2278 0.695801 30.9833 0.695801C30.7389 0.695801 30.5189 0.793579 30.3233 0.989136L22.99 8.32247L15.6567 0.989136C15.4611 0.793579 15.2411 0.695801 14.9967 0.695801C14.7522 0.695801 14.5567 0.769135 14.41 0.915802C14.2633 1.06247 14.19 1.25803 14.19 1.50247C14.19 1.74691 14.2389 1.96692 14.3367 2.16247L20.9367 8.6158H2.74999C2.2611 8.6158 1.84555 8.78691 1.50332 9.12914C1.1611 9.47136 0.98999 9.88691 0.98999 10.3758V39.4158C0.98999 39.9047 1.1611 40.3202 1.50332 40.6625C1.84555 41.0047 2.2611 41.1758 2.74999 41.1758H4.36332L5.97666 44.2558C6.17221 44.5491 6.46555 44.6958 6.85666 44.6958H10.67C11.0611 44.6958 11.3055 44.5491 11.4033 44.2558L13.0167 41.1758H32.9633L34.5767 44.2558C34.6744 44.5491 34.9189 44.6958 35.31 44.6958H39.1233C39.5144 44.6958 39.8078 44.5491 40.0033 44.2558L41.6167 41.1758H43.23C43.7189 41.1758 44.1344 41.0047 44.4767 40.6625C44.8189 40.3202 44.99 39.9047 44.99 39.4158V10.3758C44.99 9.88691 44.8189 9.47136 44.4767 9.12914C44.1344 8.78691 43.7189 8.6158 43.23 8.6158ZM10.23 42.9358H7.29666L6.41666 41.1758H11.11L10.23 42.9358ZM38.6833 42.9358H35.75L34.87 41.1758H39.5633L38.6833 42.9358ZM43.23 39.4158H2.74999V10.3758H43.23V39.4158ZM31.6433 12.2825H8.90999C7.73666 12.2825 6.70999 12.7225 5.82999 13.6025C4.94999 14.4825 4.50999 15.558 4.50999 16.8291V32.6691C4.50999 33.9402 4.94999 35.0158 5.82999 35.8958C6.70999 36.7758 7.73666 37.2158 8.90999 37.2158H31.6433C32.9144 37.2158 33.99 36.7758 34.87 35.8958C35.75 35.0158 36.19 33.9402 36.19 32.6691V16.8291C36.19 15.558 35.75 14.4825 34.87 13.6025C33.99 12.7225 32.9144 12.2825 31.6433 12.2825ZM34.43 32.6691C34.43 33.4514 34.1611 34.1114 33.6233 34.6491C33.0855 35.1869 32.4255 35.4558 31.6433 35.4558H8.90999C8.22555 35.4558 7.61443 35.1869 7.07666 34.6491C6.53888 34.1114 6.26999 33.4514 6.26999 32.6691V16.8291C6.26999 16.0469 6.53888 15.3869 7.07666 14.8491C7.61443 14.3114 8.22555 14.0425 8.90999 14.0425H22.8433L9.78999 27.0958C9.59443 27.1936 9.49666 27.3647 9.49666 27.6091C9.49666 27.8536 9.59443 28.0736 9.78999 28.2691C9.98555 28.4647 10.2055 28.5625 10.45 28.5625C10.6944 28.5625 10.8655 28.4647 10.9633 28.2691L25.19 14.0425H31.6433C32.4255 14.0425 33.0855 14.3114 33.6233 14.8491C34.1611 15.3869 34.43 16.0469 34.43 16.8291V32.6691ZM39.8567 24.3091C39.0744 24.3091 38.4389 24.5536 37.95 25.0425C37.4611 25.5314 37.2167 26.1425 37.2167 26.8758C37.2167 27.6091 37.4611 28.2202 37.95 28.7091C38.4389 29.198 39.05 29.4425 39.7833 29.4425C40.5167 29.4425 41.1278 29.198 41.6167 28.7091C42.1055 28.2202 42.35 27.6091 42.35 26.8758C42.35 26.1425 42.1055 25.5314 41.6167 25.0425C41.1278 24.5536 40.5411 24.3091 39.8567 24.3091ZM39.8567 27.6825C39.5633 27.6825 39.3433 27.6091 39.1967 27.4625C39.05 27.3158 38.9767 27.1202 38.9767 26.8758C38.9767 26.6314 39.05 26.4358 39.1967 26.2891C39.3433 26.1425 39.5389 26.0691 39.7833 26.0691C40.0278 26.0691 40.2233 26.1425 40.37 26.2891C40.5167 26.4358 40.59 26.6314 40.59 26.8758C40.59 27.1202 40.5167 27.3158 40.37 27.4625C40.2233 27.6091 40.0522 27.6825 39.8567 27.6825ZM39.8567 32.0825C39.0744 32.0825 38.4389 32.3269 37.95 32.8158C37.4611 33.3047 37.2167 33.9158 37.2167 34.6491C37.2167 35.3825 37.4611 35.9936 37.95 36.4825C38.4389 36.9714 39.05 37.2158 39.7833 37.2158C40.5167 37.2158 41.1278 36.9714 41.6167 36.4825C42.1055 35.9936 42.35 35.3825 42.35 34.6491C42.35 33.9158 42.1055 33.3047 41.6167 32.8158C41.1278 32.3269 40.5411 32.0825 39.8567 32.0825ZM39.8567 35.4558C39.5633 35.4558 39.3433 35.3825 39.1967 35.2358C39.05 35.0891 38.9767 34.8936 38.9767 34.6491C38.9767 34.4047 39.05 34.1847 39.1967 33.9891C39.3433 33.7936 39.5389 33.6958 39.7833 33.6958C40.0278 33.6958 40.2233 33.7936 40.37 33.9891C40.5167 34.1847 40.59 34.4047 40.59 34.6491C40.59 34.8936 40.5167 35.0891 40.37 35.2358C40.2233 35.3825 40.0522 35.4558 39.8567 35.4558ZM41.3233 16.8291H38.0967C37.8033 16.8291 37.5833 16.9025 37.4367 17.0491C37.29 17.1958 37.2167 17.3914 37.2167 17.6358C37.2167 17.8802 37.29 18.0758 37.4367 18.2225C37.5833 18.3691 37.8033 18.4425 38.0967 18.4425H41.3233C41.5189 18.4425 41.7144 18.3691 41.91 18.2225C42.1055 18.0758 42.2033 17.8802 42.2033 17.6358C42.2033 17.3914 42.1055 17.1958 41.91 17.0491C41.7144 16.9025 41.5189 16.8291 41.3233 16.8291ZM41.3233 13.3091H38.0967C37.8033 13.3091 37.5833 13.3825 37.4367 13.5291C37.29 13.6758 37.2167 13.8714 37.2167 14.1158C37.2167 14.3602 37.29 14.5802 37.4367 14.7758C37.5833 14.9714 37.8033 15.0691 38.0967 15.0691H41.3233C41.5189 15.0691 41.7144 14.9714 41.91 14.7758C42.1055 14.5802 42.2033 14.3602 42.2033 14.1158C42.2033 13.8714 42.1055 13.6758 41.91 13.5291C41.7144 13.3825 41.5189 13.3091 41.3233 13.3091ZM41.3233 20.3491H38.0967C37.8033 20.3491 37.5833 20.4225 37.4367 20.5691C37.29 20.7158 37.2167 20.9114 37.2167 21.1558C37.2167 21.4002 37.29 21.5958 37.4367 21.7425C37.5833 21.8891 37.8033 21.9625 38.0967 21.9625H41.3233C41.5189 21.9625 41.7144 21.8891 41.91 21.7425C42.1055 21.5958 42.2033 21.4002 42.2033 21.1558C42.2033 20.9114 42.1055 20.7158 41.91 20.5691C41.7144 20.4225 41.5189 20.3491 41.3233 20.3491ZM25.0433 20.6425C24.8478 20.4469 24.6278 20.3491 24.3833 20.3491C24.1389 20.3491 23.9678 20.4469 23.87 20.6425L15.95 28.4158C15.7544 28.6114 15.6567 28.8314 15.6567 29.0758C15.6567 29.3202 15.7544 29.5158 15.95 29.6625C16.1455 29.8091 16.3655 29.8825 16.61 29.8825C16.8544 29.8825 17.0255 29.8336 17.1233 29.7358L25.0433 21.8158C25.2389 21.6202 25.3367 21.4247 25.3367 21.2291C25.3367 21.0336 25.2389 20.838 25.0433 20.6425ZM14.19 31.4958C13.9944 31.3002 13.7744 31.2025 13.53 31.2025C13.2855 31.2025 13.09 31.2758 12.9433 31.4225C12.7967 31.5691 12.7233 31.7647 12.7233 32.0091C12.7233 32.2536 12.7967 32.4736 12.9433 32.6691C13.09 32.8647 13.2855 32.9625 13.53 32.9625C13.7744 32.9625 13.9944 32.8647 14.19 32.6691C14.3855 32.4736 14.4833 32.2536 14.4833 32.0091C14.4833 31.7647 14.3855 31.5936 14.19 31.4958Z" fill="#010101"/>
</g>
<defs>
<clipPath id="clip0_22_312">
<rect width="44.02" height="44" fill="white" transform="matrix(1 0 0 -1 0.97998 44.6958)"/>
</clipPath>
</defs>
</svg>
