<svg width="57" height="57" viewBox="0 0 57 57" fill="none" xmlns="http://www.w3.org/2000/svg">
<g clip-path="url(#clip0_22_235)">
<path d="M45.125 57.0003H11.875C9.25537 57.0003 7.125 54.8699 7.125 52.2503V30.8753H2.375C1.04263 30.8753 0 29.8327 0 28.5003C0 27.8662 0.258875 27.2487 0.710125 26.8022L27.6664 0.339902C28.1295 -0.111348 28.8681 -0.111348 29.3313 0.339902L38 8.85428V3.56278C38 2.90728 38.532 2.37528 39.1875 2.37528H48.6875C49.343 2.37528 49.875 2.90728 49.875 3.56278V20.4965L56.2875 26.7974C56.7388 27.2463 57 27.8662 57 28.4979C57 29.8303 55.9574 30.8729 54.625 30.8729H49.875V52.2479C49.875 54.8699 47.7446 57.0003 45.125 57.0003ZM28.5 2.85265L2.37738 28.4932L8.3125 28.5003C8.968 28.5003 9.5 29.0323 9.5 29.6878V52.2503C9.5 53.5589 10.564 54.6253 11.875 54.6253H45.125C46.436 54.6253 47.5 53.5589 47.5 52.2503V29.6878C47.5 29.0323 48.032 28.5003 48.6875 28.5003H54.625C54.625 28.4979 54.6203 28.4908 54.6179 28.4884L47.8539 21.8408C47.6283 21.6199 47.5 21.3135 47.5 20.9953V4.75028H40.375V11.6853C40.375 12.165 40.0876 12.5949 39.6459 12.7802C39.2041 12.963 38.6959 12.8657 38.3539 12.5332L28.5 2.85265Z" fill="black"/>
<path d="M28.5 47.5001C27.3814 47.5001 26.4717 46.5905 26.4717 45.4719C26.4717 44.3532 27.3814 43.4436 28.5 43.4436C29.6186 43.4436 30.5282 44.3532 30.5282 45.4719C30.5282 46.5905 29.6186 47.5001 28.5 47.5001Z" fill="black"/>
<path d="M21.47 39.957C21.1707 39.957 20.8739 39.8454 20.6411 39.6222C20.1732 39.1662 20.1614 38.4133 20.6174 37.943C22.7145 35.7794 25.5217 34.5658 28.5261 34.523C31.4355 34.4874 34.371 35.6084 36.5322 37.7055C37.0025 38.1615 37.012 38.9144 36.556 39.3847C36.1 39.8549 35.3495 39.8668 34.8769 39.4108C33.1716 37.7554 30.913 36.8078 28.5617 36.898C26.1939 36.9337 23.9756 37.8908 22.3202 39.5984C22.0899 39.8359 21.7811 39.957 21.47 39.957Z" fill="black"/>
<path d="M15.4375 34.1003C15.1383 34.1003 14.8414 33.9887 14.6086 33.7654C14.1384 33.3094 14.1289 32.5565 14.5849 32.0863C18.2376 28.3219 23.1444 26.2034 28.3979 26.125C33.6348 26.0728 38.6199 28.0179 42.389 31.673C42.8569 32.129 42.8688 32.8819 42.4128 33.3522C41.9591 33.8224 41.2063 33.8343 40.7336 33.3783C37.487 30.2267 33.2215 28.5 28.6995 28.5C28.6116 28.5 28.5238 28.5 28.4383 28.5024C23.8189 28.5713 19.5035 30.4309 16.2901 33.7417C16.0574 33.9815 15.7486 34.1003 15.4375 34.1003Z" fill="black"/>
</g>
<defs>
<clipPath id="clip0_22_235">
<rect width="57" height="57" fill="white"/>
</clipPath>
</defs>
</svg>
