<svg width="75" height="57" viewBox="0 0 75 57" fill="none" xmlns="http://www.w3.org/2000/svg">
<path d="M70.639 39.8669H66.1173L64.9012 3.00012C64.8457 1.31772 63.4838 0 61.8007 0C60.1174 0 58.7553 1.31787 58.6999 3.00012L57.4838 39.8669H49.5539C48.9486 39.8669 48.4581 40.3575 48.4581 40.9627C48.4581 41.5678 48.9486 42.0584 49.5539 42.0584H70.6389C71.6459 42.0584 72.4651 42.8776 72.4651 43.8846V52.9821C72.4651 53.9891 71.6459 54.8084 70.6389 54.8084H24.6389C24.0337 54.8084 23.5432 55.2989 23.5432 55.9042C23.5432 56.5095 24.0337 57 24.6389 57H70.6392C72.8545 57 74.6569 55.1976 74.6569 52.9822V43.8848C74.6568 41.6693 72.8544 39.8669 70.639 39.8669ZM60.8903 3.0723C60.9067 2.57843 61.3065 2.19144 61.8008 2.19144C62.295 2.19144 62.6948 2.57843 62.7111 3.0723L63.9247 39.8669H59.6767L60.8903 3.0723Z" fill="black"/>
<path d="M20.2559 54.8084H4.01776C3.01077 54.8084 2.19158 53.9892 2.19158 52.9821V43.8846C2.19158 42.8776 3.01077 42.0584 4.01776 42.0584H45.1711C45.7764 42.0584 46.2669 41.5679 46.2669 40.9627C46.2669 40.3575 45.7764 39.8669 45.1711 39.8669H17.1737L15.9576 3.00012C15.902 1.31772 14.5401 0 12.857 0C11.1737 0 9.81168 1.31787 9.75627 3.00012L9.2029 19.7759C9.18293 20.3807 9.65711 20.8871 10.262 20.9071C10.8636 20.9226 11.3732 20.4529 11.3932 19.8481L11.9465 3.0723C11.9629 2.57843 12.3627 2.19144 12.857 2.19144C13.3512 2.19144 13.751 2.57843 13.7673 3.0723L14.9809 39.8669H10.7329L11.2487 24.2277C11.2687 23.6229 10.7945 23.1165 10.1896 23.0965C9.58552 23.0774 9.07823 23.5507 9.0584 24.1555L8.54018 39.8669H4.01776C1.80241 39.8669 0 41.6693 0 43.8846V52.9821C0 55.1974 1.80241 56.9999 4.01776 56.9999H20.2559C20.8612 56.9999 21.3517 56.5092 21.3517 55.9041C21.3517 55.2989 20.861 54.8084 20.2559 54.8084Z" fill="black"/>
<path d="M8.49234 49.6704C7.88706 49.6704 7.39655 50.1611 7.39655 50.7662C7.39655 51.3713 7.88706 51.862 8.49234 51.862H11.9927C12.598 51.862 13.0885 51.3713 13.0885 50.7662C13.0885 50.1611 12.598 49.6704 11.9927 49.6704H8.49234Z" fill="black"/>
<path d="M20.2559 49.6704H16.7553C16.1501 49.6704 15.6595 50.1611 15.6595 50.7662C15.6595 51.3713 16.1501 51.862 16.7553 51.862H20.2559C20.8612 51.862 21.3517 51.3713 21.3517 50.7662C21.3515 50.1609 20.861 49.6704 20.2559 49.6704Z" fill="black"/>
<path d="M25.0185 49.6704C24.4132 49.6704 23.9227 50.1611 23.9227 50.7662C23.9227 51.3713 24.4132 51.862 25.0185 51.862H28.5189C29.1241 51.862 29.6147 51.3713 29.6147 50.7662C29.6147 50.1611 29.1241 49.6704 28.5189 49.6704H25.0185Z" fill="black"/>
<path d="M33.2818 49.6704C32.6765 49.6704 32.186 50.1611 32.186 50.7662C32.186 51.3713 32.6765 51.862 33.2818 51.862H36.7822C37.3875 51.862 37.878 51.3713 37.878 50.7662C37.878 50.1611 37.3875 49.6704 36.7822 49.6704H33.2818Z" fill="black"/>
<path d="M58.0537 51.862C58.6589 51.862 59.1495 51.3713 59.1495 50.7662C59.1495 50.1611 58.6589 49.6704 58.0537 49.6704H54.5532C53.948 49.6704 53.4575 50.1611 53.4575 50.7662C53.4575 51.3713 53.948 51.862 54.5532 51.862H58.0537Z" fill="black"/>
<path d="M66.2042 51.862C66.8095 51.862 67.3 51.3713 67.3 50.7662C67.3 50.1611 66.8095 49.6704 66.2042 49.6704H62.7038C62.0986 49.6704 61.608 50.1611 61.608 50.7662C61.608 51.3713 62.0986 51.862 62.7038 51.862H66.2042Z" fill="black"/>
<path d="M23.9142 18.0212C31.3111 10.624 43.347 10.6243 50.7438 18.0212C50.9579 18.2351 51.2383 18.3421 51.5187 18.3421C51.7991 18.3421 52.0795 18.2351 52.2936 18.0212C52.7214 17.5934 52.7214 16.8994 52.2936 16.4716C44.0421 8.22015 30.616 8.22 22.3645 16.4716C21.9367 16.8994 21.9367 17.5934 22.3645 18.0212C22.7925 18.4491 23.4863 18.4491 23.9142 18.0212Z" fill="black"/>
<path d="M48.1374 22.1772C48.5653 21.7493 48.5653 21.0555 48.1374 20.6277C42.1837 14.6741 32.5001 14.6681 26.5388 20.6094C26.1993 20.9329 26.0945 21.4515 26.3151 21.8928C26.507 22.2767 26.8941 22.4988 27.296 22.4988C27.4606 22.4988 27.6278 22.4616 27.7852 22.3828C27.8945 22.3282 27.9921 22.2567 28.0752 22.1723C33.1812 17.0717 41.4841 17.0738 46.5877 22.1772C47.0157 22.6051 47.7095 22.6051 48.1374 22.1772Z" fill="black"/>
<path d="M43.2844 26.5763C43.5648 26.5763 43.8452 26.4693 44.0593 26.2554C44.4871 25.8275 44.4871 25.1336 44.0593 24.7058C42.2615 22.908 39.8714 21.918 37.3288 21.918C34.7865 21.918 32.3962 22.908 30.5983 24.7058C30.1704 25.1336 30.1704 25.8275 30.5983 26.2554C31.0261 26.6833 31.7199 26.6833 32.148 26.2554C33.5318 24.8716 35.3718 24.1094 37.3287 24.1094C39.2858 24.1094 41.1255 24.8716 42.5093 26.2554C42.7236 26.4694 43.004 26.5763 43.2844 26.5763Z" fill="black"/>
<path d="M34.1711 28.2703C33.9638 28.4755 33.8459 28.7559 33.8459 29.0494C33.8324 30.0204 35.063 30.512 35.7229 29.8178C36.1527 29.391 36.7228 29.156 37.329 29.156C37.9381 29.156 38.5107 29.3932 38.9413 29.8238C40.0028 30.814 41.4809 29.3347 40.491 28.2742C38.7486 26.5319 35.9149 26.5307 34.1711 28.2703Z" fill="black"/>
</svg>
