<svg width="57" height="57" viewBox="0 0 57 57" fill="none" xmlns="http://www.w3.org/2000/svg">
<path d="M54.3281 35.625H36.5156C35.8072 35.6242 35.1281 35.3425 34.6272 34.8416C34.1263 34.3407 33.8445 33.6615 33.8438 32.9531V32.0625H39.1875C39.4237 32.0625 39.6502 31.9687 39.8173 31.8016C39.9843 31.6346 40.0781 31.4081 40.0781 31.1719C40.0781 30.9357 39.9843 30.7091 39.8173 30.5421C39.6502 30.3751 39.4237 30.2813 39.1875 30.2813H11.5781C11.1059 30.2807 10.6531 30.0929 10.3192 29.7589C9.98526 29.425 9.79742 28.9723 9.79688 28.5V26.7188H39.1875C39.4237 26.7188 39.6502 26.6249 39.8173 26.4579C39.9843 26.2909 40.0781 26.0643 40.0781 25.8281C40.0781 25.5919 39.9843 25.3654 39.8173 25.1984C39.6502 25.0313 39.4237 24.9375 39.1875 24.9375H9.79688V5.34375C9.79742 4.8715 9.98526 4.41875 10.3192 4.08482C10.6531 3.75088 11.1059 3.56304 11.5781 3.5625H45.4219C45.8941 3.56304 46.3469 3.75088 46.6808 4.08482C47.0147 4.41875 47.2026 4.8715 47.2031 5.34375V8.90625C47.2031 9.14246 47.297 9.36899 47.464 9.53602C47.631 9.70304 47.8575 9.79688 48.0938 9.79688C48.33 9.79688 48.5565 9.70304 48.7235 9.53602C48.8905 9.36899 48.9844 9.14246 48.9844 8.90625V5.34375C48.9834 4.39922 48.6077 3.49366 47.9398 2.82578C47.272 2.15789 46.3664 1.78224 45.4219 1.78125H11.5781C10.6336 1.78224 9.72803 2.15789 9.06015 2.82578C8.39227 3.49366 8.01662 4.39922 8.01562 5.34375V28.5C8.01662 29.4445 8.39227 30.3501 9.06015 31.018C9.72803 31.6859 10.6336 32.0615 11.5781 32.0625H23.1562V32.9531C23.1555 33.6615 22.8737 34.3407 22.3728 34.8416C21.8719 35.3425 21.1928 35.6242 20.4844 35.625H2.67188C2.43567 35.625 2.20913 35.7188 2.04211 35.8859C1.87508 36.0529 1.78125 36.2794 1.78125 36.5156V41.8594C1.78125 42.0956 1.87508 42.3221 2.04211 42.4891C2.20913 42.6562 2.43567 42.75 2.67188 42.75H6.83448L3.59643 54.0833C3.53148 54.3105 3.55944 54.5542 3.67417 54.7608C3.7889 54.9674 3.98099 55.12 4.2082 55.1849C4.43541 55.2499 4.67912 55.2219 4.88571 55.1072C5.0923 54.9924 5.24486 54.8004 5.30982 54.5731L8.68707 42.75H11.2877L8.04956 54.0833C8.01739 54.1958 8.0077 54.3135 8.02104 54.4298C8.03438 54.546 8.07048 54.6585 8.12729 54.7608C8.1841 54.8631 8.2605 54.9532 8.35213 55.026C8.44376 55.0987 8.54883 55.1527 8.66133 55.1849C8.77383 55.2171 8.89157 55.2268 9.00781 55.2134C9.12406 55.2001 9.23654 55.164 9.33884 55.1072C9.44113 55.0504 9.53123 54.974 9.604 54.8823C9.67677 54.7907 9.73078 54.6856 9.76294 54.5731L11.1053 49.875H45.8947L47.2371 54.573C47.302 54.8002 47.4546 54.9923 47.6612 55.107C47.8678 55.2217 48.1115 55.2497 48.3387 55.1847C48.5659 55.1198 48.758 54.9672 48.8727 54.7606C48.9874 54.554 49.0154 54.3103 48.9504 54.0831L45.7124 42.75H48.313L51.6903 54.573C51.7436 54.7589 51.8559 54.9225 52.0102 55.039C52.1646 55.1556 52.3526 55.2188 52.5461 55.2192C52.6839 55.2189 52.8199 55.1868 52.9432 55.1252C53.0666 55.0636 53.174 54.9743 53.257 54.8643C53.3401 54.7543 53.3966 54.6265 53.422 54.491C53.4475 54.3555 53.4412 54.216 53.4037 54.0833L50.1655 42.75H54.3281C54.5643 42.75 54.7909 42.6562 54.9579 42.4891C55.1249 42.3221 55.2188 42.0956 55.2188 41.8594V36.5156C55.2188 36.2794 55.1249 36.0529 54.9579 35.8859C54.7909 35.7188 54.5643 35.625 54.3281 35.625ZM24.9375 32.9531V32.0625H32.0625V32.9531C32.0614 33.9171 32.3747 34.8552 32.9549 35.625H24.0451C24.6253 34.8552 24.9386 33.9171 24.9375 32.9531ZM11.6142 48.0938L13.141 42.75H43.8587L45.3862 48.0938H11.6142ZM53.4375 40.9688H3.5625V37.4063H53.4375V40.9688Z" fill="black"/>
<path d="M30.2812 44.5312H26.7188C26.4825 44.5312 26.256 44.6251 26.089 44.7921C25.922 44.9591 25.8281 45.1857 25.8281 45.4219C25.8281 45.6581 25.922 45.8846 26.089 46.0516C26.256 46.2187 26.4825 46.3125 26.7188 46.3125H30.2812C30.5175 46.3125 30.744 46.2187 30.911 46.0516C31.078 45.8846 31.1719 45.6581 31.1719 45.4219C31.1719 45.1857 31.078 44.9591 30.911 44.7921C30.744 44.6251 30.5175 44.5312 30.2812 44.5312Z" fill="black"/>
<path d="M41.8594 16.0312V32.0625C41.8602 32.7709 42.1419 33.45 42.6428 33.9509C43.1437 34.4518 43.8229 34.7336 44.5312 34.7344H51.6562C52.3646 34.7336 53.0438 34.4518 53.5447 33.9509C54.0456 33.45 54.3273 32.7709 54.3281 32.0625V16.0312C54.3273 15.3229 54.0456 14.6437 53.5447 14.1428C53.0438 13.6419 52.3646 13.3602 51.6562 13.3594H44.5312C43.8229 13.3602 43.1437 13.6419 42.6428 14.1428C42.1419 14.6437 41.8602 15.3229 41.8594 16.0312ZM52.5469 16.0312V32.0625C52.5467 32.2986 52.4528 32.5251 52.2858 32.692C52.1188 32.859 51.8924 32.9529 51.6562 32.9531H44.5312C44.2951 32.9529 44.0687 32.859 43.9017 32.692C43.7347 32.5251 43.6408 32.2986 43.6406 32.0625V16.0312C43.6408 15.7951 43.7347 15.5687 43.9017 15.4017C44.0687 15.2347 44.2951 15.1408 44.5312 15.1406H51.6562C51.8924 15.1408 52.1188 15.2347 52.2858 15.4017C52.4528 15.5687 52.5467 15.7951 52.5469 16.0312Z" fill="black"/>
<path d="M40.0781 16.9219C40.3143 16.9219 40.5409 16.828 40.7079 16.661C40.8749 16.494 40.9688 16.2675 40.9688 16.0312C40.9697 15.0867 41.3454 14.1812 42.0133 13.5133C42.6812 12.8454 43.5867 12.4697 44.5312 12.4688C44.7675 12.4688 44.994 12.3749 45.161 12.2079C45.328 12.0409 45.4219 11.8143 45.4219 11.5781C45.4219 11.3419 45.328 11.1154 45.161 10.9484C44.994 10.7813 44.7675 10.6875 44.5312 10.6875C43.1145 10.6891 41.7562 11.2526 40.7544 12.2544C39.7526 13.2562 39.1891 14.6145 39.1875 16.0312C39.1875 16.2675 39.2813 16.494 39.4484 16.661C39.6154 16.828 39.8419 16.9219 40.0781 16.9219Z" fill="black"/>
<path d="M37.4062 16.9219C37.6425 16.9219 37.869 16.828 38.036 16.661C38.203 16.494 38.2969 16.2675 38.2969 16.0312C38.2988 14.3784 38.9562 12.7937 40.125 11.625C41.2937 10.4562 42.8784 9.79878 44.5312 9.79688C44.7675 9.79688 44.994 9.70304 45.161 9.53602C45.328 9.36899 45.4219 9.14246 45.4219 8.90625C45.4219 8.67004 45.328 8.44351 45.161 8.27648C44.994 8.10946 44.7675 8.01562 44.5312 8.01562C42.4061 8.01798 40.3687 8.86324 38.866 10.366C37.3632 11.8687 36.518 13.9061 36.5156 16.0312C36.5156 16.2675 36.6095 16.494 36.7765 16.661C36.9435 16.828 37.17 16.9219 37.4062 16.9219Z" fill="black"/>
<path d="M45.4219 6.23438C45.4219 5.99817 45.328 5.77163 45.161 5.60461C44.994 5.43758 44.7675 5.34375 44.5312 5.34375C41.6977 5.34691 38.9811 6.47392 36.9775 8.47754C34.9739 10.4811 33.8469 13.1977 33.8438 16.0312C33.8438 16.2675 33.9376 16.494 34.1046 16.661C34.2716 16.828 34.4982 16.9219 34.7344 16.9219C34.9706 16.9219 35.1971 16.828 35.3641 16.661C35.5312 16.494 35.625 16.2675 35.625 16.0312C35.6277 13.67 36.5669 11.4062 38.2365 9.73655C39.9062 8.06688 42.17 7.12769 44.5312 7.125C44.7675 7.125 44.994 7.03117 45.161 6.86414C45.328 6.69712 45.4219 6.47058 45.4219 6.23438Z" fill="black"/>
<path d="M45.4219 17.8125C45.9138 17.8125 46.3125 17.4138 46.3125 16.9219C46.3125 16.43 45.9138 16.0312 45.4219 16.0312C44.93 16.0312 44.5312 16.43 44.5312 16.9219C44.5312 17.4138 44.93 17.8125 45.4219 17.8125Z" fill="black"/>
<path d="M50.7656 17.8125C51.2575 17.8125 51.6562 17.4138 51.6562 16.9219C51.6562 16.43 51.2575 16.0312 50.7656 16.0312C50.2737 16.0312 49.875 16.43 49.875 16.9219C49.875 17.4138 50.2737 17.8125 50.7656 17.8125Z" fill="black"/>
<path d="M48.0938 26.7188C48.5856 26.7188 48.9844 26.32 48.9844 25.8281C48.9844 25.3362 48.5856 24.9375 48.0938 24.9375C47.6019 24.9375 47.2031 25.3362 47.2031 25.8281C47.2031 26.32 47.6019 26.7188 48.0938 26.7188Z" fill="black"/>
<path d="M45.4219 26.7188C45.9138 26.7188 46.3125 26.32 46.3125 25.8281C46.3125 25.3362 45.9138 24.9375 45.4219 24.9375C44.93 24.9375 44.5312 25.3362 44.5312 25.8281C44.5312 26.32 44.93 26.7188 45.4219 26.7188Z" fill="black"/>
<path d="M50.7656 26.7188C51.2575 26.7188 51.6562 26.32 51.6562 25.8281C51.6562 25.3362 51.2575 24.9375 50.7656 24.9375C50.2737 24.9375 49.875 25.3362 49.875 25.8281C49.875 26.32 50.2737 26.7188 50.7656 26.7188Z" fill="black"/>
<path d="M48.0938 29.3906C48.5856 29.3906 48.9844 28.9919 48.9844 28.5C48.9844 28.0081 48.5856 27.6094 48.0938 27.6094C47.6019 27.6094 47.2031 28.0081 47.2031 28.5C47.2031 28.9919 47.6019 29.3906 48.0938 29.3906Z" fill="black"/>
<path d="M45.4219 29.3906C45.9138 29.3906 46.3125 28.9919 46.3125 28.5C46.3125 28.0081 45.9138 27.6094 45.4219 27.6094C44.93 27.6094 44.5312 28.0081 44.5312 28.5C44.5312 28.9919 44.93 29.3906 45.4219 29.3906Z" fill="black"/>
<path d="M50.7656 29.3906C51.2575 29.3906 51.6562 28.9919 51.6562 28.5C51.6562 28.0081 51.2575 27.6094 50.7656 27.6094C50.2737 27.6094 49.875 28.0081 49.875 28.5C49.875 28.9919 50.2737 29.3906 50.7656 29.3906Z" fill="black"/>
<path d="M48.0938 32.0625C48.5856 32.0625 48.9844 31.6638 48.9844 31.1719C48.9844 30.68 48.5856 30.2812 48.0938 30.2812C47.6019 30.2812 47.2031 30.68 47.2031 31.1719C47.2031 31.6638 47.6019 32.0625 48.0938 32.0625Z" fill="black"/>
<path d="M45.4219 32.0625C45.9138 32.0625 46.3125 31.6638 46.3125 31.1719C46.3125 30.68 45.9138 30.2812 45.4219 30.2812C44.93 30.2812 44.5312 30.68 44.5312 31.1719C44.5312 31.6638 44.93 32.0625 45.4219 32.0625Z" fill="black"/>
<path d="M50.7656 32.0625C51.2575 32.0625 51.6562 31.6638 51.6562 31.1719C51.6562 30.68 51.2575 30.2812 50.7656 30.2812C50.2737 30.2812 49.875 30.68 49.875 31.1719C49.875 31.6638 50.2737 32.0625 50.7656 32.0625Z" fill="black"/>
<path d="M45.4219 21.375C45.4219 21.9034 45.5786 22.42 45.8722 22.8594C46.1658 23.2988 46.583 23.6413 47.0713 23.8435C47.5595 24.0457 48.0967 24.0986 48.615 23.9955C49.1333 23.8924 49.6094 23.638 49.983 23.2643C50.3567 22.8906 50.6112 22.4146 50.7143 21.8963C50.8174 21.378 50.7645 20.8407 50.5622 20.3525C50.36 19.8643 50.0176 19.447 49.5782 19.1534C49.1388 18.8598 48.6222 18.7031 48.0938 18.7031C47.3854 18.7039 46.7062 18.9857 46.2053 19.4866C45.7044 19.9875 45.4227 20.6666 45.4219 21.375ZM48.0938 20.4844C48.2699 20.4844 48.4421 20.5366 48.5886 20.6345C48.735 20.7323 48.8492 20.8714 48.9166 21.0342C48.984 21.1969 49.0016 21.376 48.9673 21.5488C48.9329 21.7215 48.8481 21.8802 48.7235 22.0048C48.599 22.1293 48.4403 22.2141 48.2675 22.2485C48.0947 22.2829 47.9157 22.2652 47.7529 22.1978C47.5902 22.1304 47.4511 22.0163 47.3532 21.8698C47.2554 21.7233 47.2031 21.5511 47.2031 21.375C47.2033 21.1389 47.2972 20.9124 47.4642 20.7455C47.6312 20.5785 47.8576 20.4846 48.0938 20.4844Z" fill="black"/>
<path d="M15.1406 27.6094C14.9044 27.6094 14.6779 27.7032 14.5109 27.8702C14.3438 28.0373 14.25 28.2638 14.25 28.5C14.25 28.7362 14.3438 28.9627 14.5109 29.1298C14.6779 29.2968 14.9044 29.3906 15.1406 29.3906H18.7031C18.9393 29.3906 19.1659 29.2968 19.3329 29.1298C19.4999 28.9627 19.5938 28.7362 19.5938 28.5C19.5938 28.2638 19.4999 28.0373 19.3329 27.8702C19.1659 27.7032 18.9393 27.6094 18.7031 27.6094H15.1406Z" fill="black"/>
<path d="M11.5781 27.6094C11.3419 27.6094 11.1154 27.7032 10.9484 27.8702C10.7813 28.0373 10.6875 28.2638 10.6875 28.5C10.6875 28.7362 10.7813 28.9627 10.9484 29.1298C11.1154 29.2968 11.3419 29.3906 11.5781 29.3906H12.4688C12.705 29.3906 12.9315 29.2968 13.0985 29.1298C13.2655 28.9627 13.3594 28.7362 13.3594 28.5C13.3594 28.2638 13.2655 28.0373 13.0985 27.8702C12.9315 27.7032 12.705 27.6094 12.4688 27.6094H11.5781Z" fill="black"/>
</svg>
