<svg width="63" height="63" viewBox="0 0 63 63" fill="none" xmlns="http://www.w3.org/2000/svg">
<path d="M17.4095 17.4381C17.0055 17.854 17.015 18.5184 17.431 18.9228L18.2449 19.7367L15.0947 22.8865C14.6853 23.2968 14.6853 23.9608 15.0947 24.3707L22.1371 31.4156L18.9506 34.6019L15.8017 31.4517C15.3916 31.0417 14.7265 31.0417 14.3164 31.4517L0.307698 45.4672C-0.102567 45.8772 -0.102567 46.5423 0.307702 46.9526L8.09073 54.738C8.50087 55.1483 9.16596 55.1483 9.57609 54.738L23.5855 40.7221C23.9948 40.3121 23.9948 39.6482 23.5855 39.2383L20.4359 36.0873L23.6217 32.9014L30.6607 39.9431C31.0709 40.3534 31.736 40.3534 32.1461 39.9431L35.2956 36.7937L37.0769 38.5747C36.4939 39.7863 36.6683 41.2816 37.6668 42.2805C38.9277 43.5421 41.0045 43.5421 42.2654 42.2805C43.5263 41.0193 43.527 38.943 42.2659 37.6814C41.2677 36.683 39.7727 36.5075 38.5614 37.0901L36.7808 35.3083L39.9303 32.1589C40.3403 31.7489 40.3406 31.0846 39.9308 30.6743L32.8884 23.6294L36.0749 20.4431L39.2244 23.5937C39.6347 24.0032 40.2992 24.0028 40.7091 23.5937L54.7178 9.57855C55.1278 9.1686 55.1281 8.50428 54.7183 8.09394L46.9346 0.307757C46.5244 -0.102586 45.8594 -0.102586 45.4492 0.307757L31.4399 14.3237C31.0303 14.734 31.0306 15.3983 31.4406 15.8083L34.5901 18.9589L31.4043 22.1448L24.3639 15.1019C23.9537 14.6923 23.2891 14.6927 22.8792 15.1019L19.729 18.2521L18.9158 17.4374C18.5032 17.0131 17.8218 17.0139 17.4095 17.4381ZM17.3218 23.6286L23.6215 17.329L37.7036 31.4164L31.4039 37.716L17.3218 23.6286ZM46.1923 2.53487L52.4907 8.83605L49.3048 12.0216L43.0058 5.72118L46.1923 2.53487ZM41.5211 7.20579L47.8195 13.507L44.6343 16.6921L38.3353 10.3917L41.5211 7.20579ZM36.8506 11.8763L43.149 18.1775L39.9631 21.363C37.8541 19.1795 35.797 17.1949 33.6648 15.0622L36.8506 11.8763ZM15.0569 33.6764L21.3552 39.9772L18.1687 43.1639L11.8704 36.8631L15.0569 33.6764ZM10.3857 38.3473L16.6841 44.6485L13.4982 47.834L7.19923 41.534L10.3857 38.3473ZM5.71451 43.0187L12.0135 49.3202L8.82771 52.5057L2.52864 46.2042L5.71451 43.0187ZM40.7751 39.1613C41.2336 39.62 41.2336 40.332 40.7751 40.7907C40.3166 41.2491 39.6051 41.2499 39.1465 40.7907C38.688 40.332 38.688 39.6188 39.1469 39.1605C39.6057 38.7021 40.3166 38.7025 40.7751 39.1613ZM47.7888 40.0336C47.7908 44.0179 44.0013 47.8086 40.0209 47.8082C38.5939 47.7685 38.5932 49.9349 40.0204 49.908C45.2757 49.908 49.8915 45.2914 49.8889 40.0328C49.9016 39.0756 48.7314 38.6017 48.0746 39.2986C47.8874 39.497 47.7848 39.7609 47.7888 40.0336ZM54.3104 39.9264C54.3119 48.0035 48.0089 54.3074 39.9359 54.3074C38.5083 54.2677 38.509 56.4357 39.9364 56.4072C49.1137 56.4072 56.4117 49.1063 56.4101 39.9256C56.4232 38.9684 55.2527 38.4946 54.596 39.1914C54.4087 39.3899 54.3066 39.6534 54.3104 39.9264ZM60.9 39.9264C60.9015 51.4461 51.4493 60.8995 39.9346 60.8995C38.5342 60.8995 38.5342 63 39.9346 63C52.5993 63 63.0015 52.5946 62.9999 39.9256C63.013 38.9684 61.8424 38.4946 61.1856 39.191C60.9984 39.3895 60.8961 39.6534 60.9 39.9264Z" fill="black"/>
</svg>
