<svg width="41" height="45" viewBox="0 0 41 45" fill="none" xmlns="http://www.w3.org/2000/svg">
<path d="M32.0469 31.9626L27.8694 30.5704L26.3697 27.5709C27.7208 26.1958 28.6588 24.3763 28.9752 22.4785L29.1622 21.3574H30.7617C32.2156 21.3574 33.3984 20.1746 33.3984 18.7207V13.1836C33.3984 5.91416 27.4843 0 20.2148 0C12.9268 0 7.03125 5.8972 7.03125 13.1836V18.7207C7.03125 19.8664 7.7661 20.8434 8.78906 21.2062V22.2363C8.78906 23.6902 9.97189 24.873 11.4258 24.873H12.1976C12.5786 25.7007 13.0718 26.4673 13.6719 27.1559C13.7964 27.299 13.9262 27.4377 14.0592 27.5726L12.5603 30.5704L8.38274 31.9627C3.52547 33.5823 0 38.6957 0 44.1211C0 44.6065 0.393486 45 0.878906 45H39.5508C40.0361 45 40.4297 44.6065 40.4297 44.1211C40.4297 38.6957 36.9043 33.5823 32.0469 31.9626ZM31.6406 18.7207C31.6406 19.2053 31.2463 19.5996 30.7617 19.5996H29.4203C29.6438 17.869 29.7926 16.0275 29.8525 14.2137C29.8542 14.1625 29.8557 14.1128 29.8572 14.0625H31.6406V18.7207ZM9.66797 19.5996C9.18334 19.5996 8.78906 19.2053 8.78906 18.7207V14.0625H10.5731C10.576 14.1542 10.579 14.2463 10.5825 14.339C10.5826 14.3422 10.5827 14.3452 10.5828 14.3484C10.5828 14.3487 10.5828 14.3489 10.5828 14.3492C10.6443 16.1133 10.7913 17.9071 11.0096 19.5995H9.66797V19.5996ZM11.4258 23.1152C10.9412 23.1152 10.5469 22.721 10.5469 22.2363V21.3574H11.2674L11.4544 22.4788C11.4901 22.692 11.534 22.9043 11.5847 23.1152H11.4258ZM10.5484 12.3047H8.82246C9.26763 6.41417 14.1835 1.75781 20.2148 1.75781C26.2194 1.75781 31.1569 6.41355 31.6071 12.3047H29.8814C29.8181 7.45075 25.8654 3.51562 21.0016 3.51562H19.4283C14.5645 3.51562 10.6116 7.45075 10.5484 12.3047ZM19.4282 5.27344H21.0015C24.9398 5.27344 28.1273 8.49472 28.125 12.4286C28.125 12.7052 28.1228 12.946 28.1181 13.1651C28.1181 13.1679 28.1181 13.1708 28.1181 13.1737L27.0187 13.0167C24.0322 12.5902 21.2123 11.1803 19.0785 9.04649C18.9136 8.8817 18.6901 8.78906 18.457 8.78906C16.0966 8.78906 13.8371 9.86449 12.3435 11.6814C12.7116 8.10255 15.7371 5.27344 19.4282 5.27344ZM13.4068 23.1152C12.9669 21.6516 12.4634 17.345 12.3521 14.5852L13.5351 13.0079C14.6215 11.5598 16.3117 10.6601 18.1097 10.5568C20.4754 12.8082 23.536 14.295 26.7702 14.7567L28.0641 14.9417C27.9776 16.7773 27.8009 18.6193 27.5476 20.3134C27.5476 20.3139 27.5475 20.3145 27.5474 20.3151C27.4669 20.8598 27.4034 21.2103 27.2413 22.1893C26.7759 24.9812 24.6927 27.5058 21.9427 28.1934C20.8109 28.4759 19.6186 28.4759 18.4874 28.1934C16.7703 27.7641 15.1958 26.576 14.1797 24.873H15.9715C16.3343 25.896 17.3112 26.6309 18.457 26.6309H20.2148C21.6716 26.6309 22.8516 25.451 22.8516 23.9941C22.8516 22.5403 21.6687 21.3574 20.2148 21.3574H18.457C17.2857 21.3574 16.3232 22.114 15.97 23.1152H13.4068ZM18.3831 29.9721C18.986 30.0991 19.6006 30.1641 20.2148 30.1641C20.6957 30.1641 21.1766 30.1238 21.6521 30.0458L20.0991 31.6882L18.3831 29.9721ZM18.8908 32.9659L16.1031 35.914C15.3356 34.445 14.6762 32.9161 14.1353 31.3509L15.1821 29.2572L18.8908 32.9659ZM25.0986 28.9594L26.2942 31.3508C25.7525 32.9186 25.0929 34.448 24.3262 35.9153L21.3425 32.9316L25.0986 28.9594ZM17.5781 23.9941C17.5781 23.5089 17.9717 23.1152 18.457 23.1152H20.2148C20.6995 23.1152 21.0938 23.5095 21.0938 23.9941C21.0938 24.4795 20.7001 24.873 20.2148 24.873H18.457C17.9724 24.873 17.5781 24.4788 17.5781 23.9941ZM1.79297 43.2422C2.14128 38.8882 5.03895 34.9306 8.93865 33.6302L12.6383 32.3973C13.3161 34.2715 14.1558 36.0933 15.14 37.8236C15.1416 37.8266 15.1432 37.8296 15.1449 37.8325L15.145 37.8327C15.864 39.0974 16.6733 40.3332 17.5507 41.5064L18.6319 43.2422H1.79297ZM20.2148 42.4587L19.0229 40.5451C19.0095 40.5236 18.9953 40.5028 18.9802 40.4826C18.2684 39.5332 17.6045 38.5403 16.9998 37.524L20.1342 34.2093L23.437 37.5121C22.8283 38.5357 22.1621 39.5328 21.4497 40.4824C21.4066 40.5398 21.4677 40.4494 20.2148 42.4587ZM21.7978 43.2422L22.8789 41.5065C23.7602 40.3288 24.5753 39.083 25.3015 37.8035C25.3059 37.7958 25.31 37.7879 25.3144 37.7801C25.315 37.7792 25.3155 37.7783 25.316 37.7773C26.2876 36.0635 27.1186 34.2576 27.7914 32.3973L31.4909 33.6302C35.3907 34.9306 38.2884 38.8882 38.6367 43.2422H21.7978Z" fill="#CF0631"/>
<path d="M29.8789 34.8047C29.3938 34.8047 29 35.1984 29 35.6836C29 36.1688 29.3938 36.5625 29.8789 36.5625C30.3641 36.5625 30.7578 36.1688 30.7578 35.6836C30.7578 35.1984 30.3641 34.8047 29.8789 34.8047Z" fill="#CF0631"/>
<path d="M35.9913 39.6854C35.4039 38.5097 34.5436 37.4652 33.5032 36.6648C33.1184 36.3687 32.5667 36.4407 32.2707 36.8255C31.9747 37.2103 32.0467 37.7621 32.4314 38.0581C33.2623 38.6973 33.9494 39.5317 34.4187 40.4709C34.636 40.9059 35.1643 41.081 35.5977 40.8644C36.0319 40.6475 36.2081 40.1196 35.9913 39.6854Z" fill="#CF0631"/>
</svg>
